<svg id="visual" viewBox="0 0 1200 3000" width="1200" height="3000" xmlns="http://www.w3.org/2000/svg" xmlns:xlink="http://www.w3.org/1999/xlink" version="1.1"><path d="M1103 3000L1079 2625L1067 2250L1103 1875L1103 1500L1103 1125L1091 750L1079 375L1091 0L1200 0L1200 375L1200 750L1200 1125L1200 1500L1200 1875L1200 2250L1200 2625L1200 3000Z" fill="#cd4b1b"></path><path d="M1043 3000L1031 2625L1019 2250L1055 1875L1055 1500L1055 1125L1043 750L1031 375L1031 0L1092 0L1080 375L1092 750L1104 1125L1104 1500L1104 1875L1068 2250L1080 2625L1104 3000Z" fill="#d75419"></path><path d="M995 3000L995 2625L971 2250L1019 1875L1019 1500L1019 1125L995 750L983 375L995 0L1032 0L1032 375L1044 750L1056 1125L1056 1500L1056 1875L1020 2250L1032 2625L1044 3000Z" fill="#e05d17"></path><path d="M935 3000L923 2625L911 2250L971 1875L959 1500L959 1125L935 750L935 375L947 0L996 0L984 375L996 750L1020 1125L1020 1500L1020 1875L972 2250L996 2625L996 3000Z" fill="#e96613"></path><path d="M707 3000L683 2625L683 2250L755 1875L731 1500L707 1125L731 750L659 375L755 0L948 0L936 375L936 750L960 1125L960 1500L972 1875L912 2250L924 2625L936 3000Z" fill="#f26f0d"></path><path d="M599 3000L599 2625L611 2250L647 1875L623 1500L611 1125L623 750L575 375L647 0L756 0L660 375L732 750L708 1125L732 1500L756 1875L684 2250L684 2625L708 3000Z" fill="#f5730a"></path><path d="M395 3000L407 2625L359 2250L383 1875L407 1500L359 1125L383 750L383 375L395 0L648 0L576 375L624 750L612 1125L624 1500L648 1875L612 2250L600 2625L600 3000Z" fill="#f5730a"></path><path d="M335 3000L347 2625L299 2250L323 1875L347 1500L311 1125L323 750L323 375L347 0L396 0L384 375L384 750L360 1125L408 1500L384 1875L360 2250L408 2625L396 3000Z" fill="#f26f0d"></path><path d="M275 3000L275 2625L239 2250L239 1875L287 1500L251 1125L251 750L263 375L275 0L348 0L324 375L324 750L312 1125L348 1500L324 1875L300 2250L348 2625L336 3000Z" fill="#e96613"></path><path d="M239 3000L239 2625L203 2250L203 1875L251 1500L215 1125L215 750L227 375L239 0L276 0L264 375L252 750L252 1125L288 1500L240 1875L240 2250L276 2625L276 3000Z" fill="#e05d17"></path><path d="M71 3000L71 2625L83 2250L71 1875L95 1500L71 1125L59 750L95 375L83 0L240 0L228 375L216 750L216 1125L252 1500L204 1875L204 2250L240 2625L240 3000Z" fill="#d75419"></path><path d="M0 3000L0 2625L0 2250L0 1875L0 1500L0 1125L0 750L0 375L0 0L84 0L96 375L60 750L72 1125L96 1500L72 1875L84 2250L72 2625L72 3000Z" fill="#cd4b1b"></path></svg>