<?xml version="1.0" encoding="UTF-8"?>
<!DOCTYPE svg PUBLIC "-//W3C//DTD SVG 1.1//EN" "http://www.w3.org/Graphics/SVG/1.1/DTD/svg11.dtd">
<svg xmlns="http://www.w3.org/2000/svg" version="1.1" width="500px" height="500px" style="shape-rendering:geometricPrecision; text-rendering:geometricPrecision; image-rendering:optimizeQuality; fill-rule:evenodd; clip-rule:evenodd" xmlns:xlink="http://www.w3.org/1999/xlink">
<g><path style="opacity:0.999" fill="#6c69d0" d="M 357.5,3.5 C 352.833,3.5 348.167,3.5 343.5,3.5C 333.5,3.5 323.5,3.5 313.5,3.5C 297.5,3.5 281.5,3.5 265.5,3.5C 254.167,3.5 242.833,3.5 231.5,3.5C 217.833,3.5 204.167,3.5 190.5,3.5C 180.161,3.33351 169.828,3.50017 159.5,4C 149.427,16.3619 137.427,26.3619 123.5,34C 111.565,40.8008 99.2316,46.8008 86.5,52C 86.8333,52.3333 87.1667,52.6667 87.5,53C 62.168,63.6699 36.168,72.5032 9.5,79.5C 9.5,79.1667 9.5,78.8333 9.5,78.5C 9.76697,76.0347 10.4336,73.7014 11.5,71.5C 45.5312,63.4333 77.8646,50.9333 108.5,34C 117.876,28.6445 126.543,22.3111 134.5,15C 137.806,11.5412 140.473,7.70791 142.5,3.5C 214.294,2.17173 285.961,2.17173 357.5,3.5 Z"/></g>
<g><path style="opacity:0.999" fill="#5b54ca" d="M 190.5,3.5 C 188.107,7.40231 185.107,10.9023 181.5,14C 156.309,32.6018 128.975,47.6018 99.5,59C 100.167,59.3333 100.833,59.6667 101.5,60C 70.4339,72.0777 38.7673,82.2444 6.5,90.5C 6.21552,88.5853 6.54885,86.9187 7.5,85.5C 8.73838,83.7857 9.40505,81.7857 9.5,79.5C 36.168,72.5032 62.168,63.6699 87.5,53C 87.1667,52.6667 86.8333,52.3333 86.5,52C 99.2316,46.8008 111.565,40.8008 123.5,34C 137.427,26.3619 149.427,16.3619 159.5,4C 169.828,3.50017 180.161,3.33351 190.5,3.5 Z"/></g>
<g><path style="opacity:1" fill="#664dc9" d="M 190.5,3.5 C 204.167,3.5 217.833,3.5 231.5,3.5C 218.655,15.9334 204.321,26.4334 188.5,35C 176.018,40.6926 165.018,46.6926 155.5,53C 143.623,58.1394 131.957,62.8061 120.5,67C 120.833,67.3333 121.167,67.6667 121.5,68C 120.333,68.5 119.5,69.3333 119,70.5C 118.163,68.9926 116.996,68.4926 115.5,69C 117.358,70.9817 119.691,72.1484 122.5,72.5C 122.833,71.8333 123.167,71.1667 123.5,70.5C 124.417,71.1272 125.417,71.4606 126.5,71.5C 113.533,76.9924 100.199,81.8258 86.5,86C 59.5883,93.8037 32.5883,101.304 5.5,108.5C 4.61432,107.675 4.28099,106.675 4.5,105.5C 4.30249,100.25 4.96916,95.2502 6.5,90.5C 38.7673,82.2444 70.4339,72.0777 101.5,60C 100.833,59.6667 100.167,59.3333 99.5,59C 128.975,47.6018 156.309,32.6018 181.5,14C 185.107,10.9023 188.107,7.40231 190.5,3.5 Z"/></g>
<g><path style="opacity:1" fill="#6c47ca" d="M 231.5,3.5 C 242.833,3.5 254.167,3.5 265.5,3.5C 252.288,15.1188 237.954,25.2855 222.5,34C 211.833,39.3333 201.167,44.6667 190.5,50C 187.911,51.6573 185.244,51.9906 182.5,51C 168.195,58.1945 153.862,64.0278 139.5,68.5C 137.702,70.1005 135.702,70.4338 133.5,69.5C 133.891,70.8905 133.058,71.8905 131,72.5C 129.644,71.6198 128.144,71.2865 126.5,71.5C 125.417,71.4606 124.417,71.1272 123.5,70.5C 123.167,71.1667 122.833,71.8333 122.5,72.5C 119.691,72.1484 117.358,70.9817 115.5,69C 116.996,68.4926 118.163,68.9926 119,70.5C 119.5,69.3333 120.333,68.5 121.5,68C 121.167,67.6667 120.833,67.3333 120.5,67C 131.957,62.8061 143.623,58.1394 155.5,53C 165.018,46.6926 176.018,40.6926 188.5,35C 204.321,26.4334 218.655,15.9334 231.5,3.5 Z"/></g>
<g><path style="opacity:1" fill="#7d48cb" d="M 265.5,3.5 C 281.5,3.5 297.5,3.5 313.5,3.5C 295.093,18.5537 275.093,31.3871 253.5,42C 241.286,47.9404 228.953,53.6071 216.5,59C 213.291,57.7722 210.791,58.6055 209,61.5C 206.841,62.5012 204.507,62.5012 202,61.5C 197.998,63.744 194.164,65.4107 190.5,66.5C 201.146,67.4987 211.813,67.832 222.5,67.5C 232.5,67.5 242.5,67.5 252.5,67.5C 269.5,67.5 286.5,67.5 303.5,67.5C 305.735,67.2053 307.735,67.5386 309.5,68.5C 260.825,68.2431 212.159,68.5764 163.5,69.5C 161.143,69.6633 158.81,69.4966 156.5,69C 156.833,68.6667 157.167,68.3333 157.5,68C 156.234,67.6905 155.067,67.1905 154,66.5C 152.992,66.9817 151.825,67.1484 150.5,67C 151.696,67.6543 151.696,68.1543 150.5,68.5C 146.735,68.1209 143.068,68.1209 139.5,68.5C 153.862,64.0278 168.195,58.1945 182.5,51C 185.244,51.9906 187.911,51.6573 190.5,50C 201.167,44.6667 211.833,39.3333 222.5,34C 237.954,25.2855 252.288,15.1188 265.5,3.5 Z"/></g>
<g><path style="opacity:1" fill="#803cc8" d="M 313.5,3.5 C 323.5,3.5 333.5,3.5 343.5,3.5C 309.673,28.7461 273.006,48.7461 233.5,63.5C 231.378,63.6225 229.211,63.6225 227,63.5C 225.75,65.1935 224.25,66.5268 222.5,67.5C 211.813,67.832 201.146,67.4987 190.5,66.5C 194.164,65.4107 197.998,63.744 202,61.5C 204.507,62.5012 206.841,62.5012 209,61.5C 210.791,58.6055 213.291,57.7722 216.5,59C 228.953,53.6071 241.286,47.9404 253.5,42C 275.093,31.3871 295.093,18.5537 313.5,3.5 Z"/></g>
<g><path style="opacity:1" fill="#873ac8" d="M 343.5,3.5 C 348.167,3.5 352.833,3.5 357.5,3.5C 369.678,3.17159 381.678,3.50492 393.5,4.5C 383.833,4.5 374.167,4.5 364.5,4.5C 364.451,7.0991 363.451,9.26577 361.5,11C 328.457,33.0157 293.79,50.849 257.5,64.5C 255.786,63.3915 255.119,64.0582 255.5,66.5C 254.209,66.2627 253.209,66.596 252.5,67.5C 242.5,67.5 232.5,67.5 222.5,67.5C 224.25,66.5268 225.75,65.1935 227,63.5C 229.211,63.6225 231.378,63.6225 233.5,63.5C 273.006,48.7461 309.673,28.7461 343.5,3.5 Z"/></g>
<g><path style="opacity:1" fill="#4e5eca" d="M 129.5,3.5 C 133.833,3.5 138.167,3.5 142.5,3.5C 140.473,7.70791 137.806,11.5412 134.5,15C 126.543,22.3111 117.876,28.6445 108.5,34C 77.8646,50.9333 45.5312,63.4333 11.5,71.5C 12.5969,68.3135 13.9303,65.3135 15.5,62.5C 46.637,54.0744 75.3037,40.5744 101.5,22C 107.27,17.7381 111.27,12.2381 113.5,5.5C 118.985,4.83319 124.319,4.16653 129.5,3.5 Z"/></g>
<g><path style="opacity:1" fill="#9136c6" d="M 393.5,4.5 C 400.489,4.22236 407.156,5.22236 413.5,7.5C 411.012,10.4392 408.012,12.9392 404.5,15C 371.936,34.6155 338.269,52.1155 303.5,67.5C 286.5,67.5 269.5,67.5 252.5,67.5C 253.209,66.596 254.209,66.2627 255.5,66.5C 255.119,64.0582 255.786,63.3915 257.5,64.5C 293.79,50.849 328.457,33.0157 361.5,11C 363.451,9.26577 364.451,7.0991 364.5,4.5C 374.167,4.5 383.833,4.5 393.5,4.5 Z"/></g>
<g><path style="opacity:1" fill="#4a65ca" d="M 129.5,3.5 C 124.319,4.16653 118.985,4.83319 113.5,5.5C 111.27,12.2381 107.27,17.7381 101.5,22C 75.3037,40.5744 46.637,54.0744 15.5,62.5C 17.0002,58.827 19.0002,55.4937 21.5,52.5C 39.536,47.4906 56.536,39.6573 72.5,29C 77.6344,24.8671 82.4677,20.3671 87,15.5C 88.5489,12.6883 89.3822,9.68827 89.5,6.5C 94.6022,5.08205 99.9355,4.24872 105.5,4C 113.493,3.50029 121.493,3.33362 129.5,3.5 Z"/></g>
<g><path style="opacity:1" fill="#486bca" d="M 89.5,6.5 C 89.3822,9.68827 88.5489,12.6883 87,15.5C 82.4677,20.3671 77.6344,24.8671 72.5,29C 56.536,39.6573 39.536,47.4906 21.5,52.5C 23.7376,47.9289 26.7376,43.9289 30.5,40.5C 42.2985,35.8523 52.4652,28.8523 61,19.5C 61.4101,18.0993 61.9101,16.766 62.5,15.5C 71.0184,11.105 80.0184,8.10497 89.5,6.5 Z"/></g>
<g><path style="opacity:1" fill="#9c35c4" d="M 413.5,7.5 C 425.643,9.74554 436.643,14.4122 446.5,21.5C 446.586,22.4959 446.252,23.3292 445.5,24C 440.508,26.1609 435.841,28.8276 431.5,32C 433.256,32.1405 434.922,31.6405 436.5,30.5C 437.696,30.8457 437.696,31.3457 436.5,32C 411.394,45.697 384.394,58.697 355.5,71C 353.19,71.4966 350.857,71.6633 348.5,71.5C 335.55,69.9255 322.55,68.9255 309.5,68.5C 307.735,67.5386 305.735,67.2053 303.5,67.5C 338.269,52.1155 371.936,34.6155 404.5,15C 408.012,12.9392 411.012,10.4392 413.5,7.5 Z"/></g>
<g><path style="opacity:0.999" fill="#5879ce" d="M 62.5,15.5 C 61.9101,16.766 61.4101,18.0993 61,19.5C 52.4652,28.8523 42.2985,35.8523 30.5,40.5C 39.2286,29.7887 49.8953,21.4553 62.5,15.5 Z"/></g>
<g><path style="opacity:1" fill="#a634c0" d="M 446.5,21.5 C 451.88,23.8545 456.546,27.1879 460.5,31.5C 460.414,32.4959 460.748,33.3292 461.5,34C 431.262,50.1187 400.262,64.6187 368.5,77.5C 361.793,75.261 355.127,73.261 348.5,71.5C 350.857,71.6633 353.19,71.4966 355.5,71C 384.394,58.697 411.394,45.697 436.5,32C 437.696,31.3457 437.696,30.8457 436.5,30.5C 434.922,31.6405 433.256,32.1405 431.5,32C 435.841,28.8276 440.508,26.1609 445.5,24C 446.252,23.3292 446.586,22.4959 446.5,21.5 Z"/></g>
<g><path style="opacity:1" fill="#ac33be" d="M 460.5,31.5 C 463.5,33.8333 466.167,36.5 468.5,39.5C 468.427,41.0269 469.094,42.0269 470.5,42.5C 471.278,44.2247 471.611,45.8914 471.5,47.5C 470.282,47.109 469.448,47.7756 469,49.5C 467.984,48.3659 467.317,48.6992 467,50.5C 466.333,49.8333 465.667,49.1667 465,48.5C 446.484,58.0082 427.65,66.8416 408.5,75C 400.326,78.6678 391.993,81.8345 383.5,84.5C 378.311,82.4032 373.311,80.0698 368.5,77.5C 400.262,64.6187 431.262,50.1187 461.5,34C 460.748,33.3292 460.414,32.4959 460.5,31.5 Z"/></g>
<g><path style="opacity:0.627" fill="#e2b4e6" d="M 468.5,39.5 C 469.906,39.9731 470.573,40.9731 470.5,42.5C 469.094,42.0269 468.427,41.0269 468.5,39.5 Z"/></g>
<g><path style="opacity:1" fill="#b233ba" d="M 470.5,42.5 C 472.984,44.8003 474.984,47.4669 476.5,50.5C 476.427,52.0269 477.094,53.0269 478.5,53.5C 479.338,53.8417 479.672,54.5084 479.5,55.5C 479.586,56.4959 479.252,57.3292 478.5,58C 473.136,60.6822 467.802,63.3489 462.5,66C 465.167,66.6667 465.167,67.3333 462.5,68C 459.756,67.0094 457.089,67.3427 454.5,69C 448.919,71.8598 443.252,74.5265 437.5,77C 438.167,77.3333 438.833,77.6667 439.5,78C 438.101,78.5946 436.768,78.4279 435.5,77.5C 432.539,78.1831 432.205,79.0164 434.5,80C 427.198,80.7862 420.198,83.1195 413.5,87C 414.167,87.3333 414.833,87.6667 415.5,88C 414.101,88.5946 412.768,88.4279 411.5,87.5C 406.209,89.7069 400.875,91.7069 395.5,93.5C 391.462,90.4884 387.462,87.4884 383.5,84.5C 391.993,81.8345 400.326,78.6678 408.5,75C 427.65,66.8416 446.484,58.0082 465,48.5C 465.667,49.1667 466.333,49.8333 467,50.5C 467.317,48.6992 467.984,48.3659 469,49.5C 469.448,47.7756 470.282,47.109 471.5,47.5C 471.611,45.8914 471.278,44.2247 470.5,42.5 Z"/></g>
<g><path style="opacity:0.478" fill="#dfa7e1" d="M 476.5,50.5 C 477.906,50.9731 478.573,51.9731 478.5,53.5C 477.094,53.0269 476.427,52.0269 476.5,50.5 Z"/></g>
<g><path style="opacity:1" fill="#794bc6" d="M 163.5,69.5 C 138.032,71.9845 116.032,81.9845 97.5,99.5C 96.8163,97.8148 95.483,96.8148 93.5,96.5C 92.3044,96.8457 92.3044,97.3457 93.5,98C 64.8575,104.54 36.1908,111.874 7.5,120C 5.88066,120.236 4.88066,121.069 4.5,122.5C 4.16667,122.5 3.83333,122.5 3.5,122.5C 3.1778,116.642 3.51114,110.975 4.5,105.5C 4.28099,106.675 4.61432,107.675 5.5,108.5C 32.5883,101.304 59.5883,93.8037 86.5,86C 100.199,81.8258 113.533,76.9924 126.5,71.5C 128.144,71.2865 129.644,71.6198 131,72.5C 133.058,71.8905 133.891,70.8905 133.5,69.5C 135.702,70.4338 137.702,70.1005 139.5,68.5C 143.068,68.1209 146.735,68.1209 150.5,68.5C 151.696,68.1543 151.696,67.6543 150.5,67C 151.825,67.1484 152.992,66.9817 154,66.5C 155.067,67.1905 156.234,67.6905 157.5,68C 157.167,68.3333 156.833,68.6667 156.5,69C 158.81,69.4966 161.143,69.6633 163.5,69.5 Z"/></g>
<g><path style="opacity:1" fill="#b935b7" d="M 479.5,55.5 C 482.874,59.5806 485.207,64.2472 486.5,69.5C 460.143,82.173 433.143,93.5063 405.5,103.5C 401.833,100.5 398.5,97.1667 395.5,93.5C 400.875,91.7069 406.209,89.7069 411.5,87.5C 412.768,88.4279 414.101,88.5946 415.5,88C 414.833,87.6667 414.167,87.3333 413.5,87C 420.198,83.1195 427.198,80.7862 434.5,80C 432.205,79.0164 432.539,78.1831 435.5,77.5C 436.768,78.4279 438.101,78.5946 439.5,78C 438.833,77.6667 438.167,77.3333 437.5,77C 443.252,74.5265 448.919,71.8598 454.5,69C 457.089,67.3427 459.756,67.0094 462.5,68C 465.167,67.3333 465.167,66.6667 462.5,66C 467.802,63.3489 473.136,60.6822 478.5,58C 479.252,57.3292 479.586,56.4959 479.5,55.5 Z"/></g>
<g><path style="opacity:1" fill="#bf35b3" d="M 486.5,69.5 C 488.601,72.7966 489.935,76.4632 490.5,80.5C 490.67,81.8221 490.337,82.9887 489.5,84C 467.545,93.1113 446.878,101.445 427.5,109C 429.595,109.556 429.762,110.056 428,110.5C 427.127,110.265 426.293,109.931 425.5,109.5C 421.258,111.248 416.924,112.582 412.5,113.5C 410.167,110.167 407.833,106.833 405.5,103.5C 433.143,93.5063 460.143,82.173 486.5,69.5 Z"/></g>
<g><path style="opacity:0.757" fill="#a49ade" d="M 9.5,78.5 C 9.5,78.8333 9.5,79.1667 9.5,79.5C 9.40505,81.7857 8.73838,83.7857 7.5,85.5C 7.40953,82.8478 8.07619,80.5145 9.5,78.5 Z"/></g>
<g><path style="opacity:1" fill="#c838ab" d="M 490.5,80.5 C 493.065,87.4889 494.565,94.8222 495,102.5C 495.5,113.828 495.667,125.162 495.5,136.5C 495.5,173.5 495.5,210.5 495.5,247.5C 477.094,221.248 456.261,196.914 433,174.5C 431.281,171.975 430.114,169.308 429.5,166.5C 427.988,147.436 422.321,129.769 412.5,113.5C 416.924,112.582 421.258,111.248 425.5,109.5C 426.293,109.931 427.127,110.265 428,110.5C 429.762,110.056 429.595,109.556 427.5,109C 446.878,101.445 467.545,93.1113 489.5,84C 490.337,82.9887 490.67,81.8221 490.5,80.5 Z"/></g>
<g><path style="opacity:1" fill="#a053c1" d="M 189.5,100.5 C 167.766,105.876 146.432,111.543 125.5,117.5C 131.919,111.286 139.586,107.119 148.5,105C 161.963,101.73 175.629,100.23 189.5,100.5 Z"/></g>
<g><path style="opacity:1" fill="#993ab7" d="M 189.5,100.5 C 193.833,100.5 198.167,100.5 202.5,100.5C 208.176,100.334 213.843,100.501 219.5,101C 202.488,106.504 185.155,110.671 167.5,113.5C 166.106,113.379 164.772,113.046 163.5,112.5C 151.876,115.156 139.876,117.49 127.5,119.5C 126.287,119.253 125.62,118.586 125.5,117.5C 146.432,111.543 167.766,105.876 189.5,100.5 Z"/></g>
<g><path style="opacity:1" fill="#a641b6" d="M 202.5,100.5 C 231.833,99.1667 261.167,99.1667 290.5,100.5C 269.844,106.053 249.178,110.553 228.5,114C 222.746,115.975 217.079,117.808 211.5,119.5C 198.879,121.327 186.212,122.827 173.5,124C 170.15,124.25 166.983,125.083 164,126.5C 160.195,126.569 156.362,126.569 152.5,126.5C 138.934,129.406 125.601,131.74 112.5,133.5C 113.11,132.609 113.443,131.609 113.5,130.5C 116.365,125.092 120.365,120.759 125.5,117.5C 125.62,118.586 126.287,119.253 127.5,119.5C 139.876,117.49 151.876,115.156 163.5,112.5C 164.772,113.046 166.106,113.379 167.5,113.5C 185.155,110.671 202.488,106.504 219.5,101C 213.843,100.501 208.176,100.334 202.5,100.5 Z"/></g>
<g><path style="opacity:1" fill="#8543be" d="M 97.5,99.5 C 92.4204,105.238 87.7538,111.238 83.5,117.5C 83.2089,116.351 82.3756,115.684 81,115.5C 55.6599,122.169 30.3266,128.836 5,135.5C 4.50098,131.179 4.33432,126.846 4.5,122.5C 4.88066,121.069 5.88066,120.236 7.5,120C 36.1908,111.874 64.8575,104.54 93.5,98C 92.3044,97.3457 92.3044,96.8457 93.5,96.5C 95.483,96.8148 96.8163,97.8148 97.5,99.5 Z"/></g>
<g><path style="opacity:1" fill="#af3ab6" d="M 290.5,100.5 C 310.709,99.5149 330.709,101.015 350.5,105C 355.823,106.667 360.823,108.834 365.5,111.5C 363.184,112.16 360.851,112.827 358.5,113.5C 356.945,113.278 355.611,112.611 354.5,111.5C 353.833,111.833 353.167,112.167 352.5,112.5C 352.935,111.038 352.102,110.038 350,109.5C 348.584,110.573 347.25,110.573 346,109.5C 344.27,110.74 342.437,111.74 340.5,112.5C 336.495,110.471 332.328,109.804 328,110.5C 326.128,109.932 324.295,109.265 322.5,108.5C 320.632,108.946 318.799,109.279 317,109.5C 312.255,108.251 307.588,107.584 303,107.5C 298.399,109.109 293.899,110.109 289.5,110.5C 288.833,110.167 288.167,109.833 287.5,109.5C 283.206,110.939 278.873,112.272 274.5,113.5C 273.446,113.32 272.446,112.987 271.5,112.5C 263.814,114.96 256.147,116.96 248.5,118.5C 245.111,118.661 241.611,118.327 238,117.5C 230.679,118.666 223.345,119.666 216,120.5C 214.467,120.227 212.967,119.894 211.5,119.5C 217.079,117.808 222.746,115.975 228.5,114C 249.178,110.553 269.844,106.053 290.5,100.5 Z"/></g>
<g><path style="opacity:1" fill="#b634b2" d="M 365.5,111.5 C 367.411,112.075 369.078,113.075 370.5,114.5C 370.5,115.5 370.5,116.5 370.5,117.5C 365.553,117.619 360.386,118.286 355,119.5C 347.317,119.055 339.651,119.722 332,121.5C 329.308,120.161 326.974,120.161 325,121.5C 323.43,120.642 321.763,119.975 320,119.5C 317.649,119.82 315.316,120.153 313,120.5C 310.539,119.782 308.039,119.115 305.5,118.5C 301.261,118.817 296.927,118.817 292.5,118.5C 277.514,118.152 262.848,118.152 248.5,118.5C 256.147,116.96 263.814,114.96 271.5,112.5C 272.446,112.987 273.446,113.32 274.5,113.5C 278.873,112.272 283.206,110.939 287.5,109.5C 288.167,109.833 288.833,110.167 289.5,110.5C 293.899,110.109 298.399,109.109 303,107.5C 307.588,107.584 312.255,108.251 317,109.5C 318.799,109.279 320.632,108.946 322.5,108.5C 324.295,109.265 326.128,109.932 328,110.5C 332.328,109.804 336.495,110.471 340.5,112.5C 342.437,111.74 344.27,110.74 346,109.5C 347.25,110.573 348.584,110.573 350,109.5C 352.102,110.038 352.935,111.038 352.5,112.5C 353.167,112.167 353.833,111.833 354.5,111.5C 355.611,112.611 356.945,113.278 358.5,113.5C 360.851,112.827 363.184,112.16 365.5,111.5 Z"/></g>
<g><path style="opacity:1" fill="#ab38ab" d="M 248.5,118.5 C 262.848,118.152 277.514,118.152 292.5,118.5C 273.23,122.045 253.897,125.378 234.5,128.5C 229.578,128.668 224.578,128.668 219.5,128.5C 215.438,128.889 211.438,129.556 207.5,130.5C 203.415,129.289 199.415,129.622 195.5,131.5C 194.228,130.954 192.894,130.621 191.5,130.5C 164.834,134.375 137.501,138.375 109.5,142.5C 108.702,142.043 108.369,141.376 108.5,140.5C 108.707,137.759 109.707,135.426 111.5,133.5C 111.833,133.5 112.167,133.5 112.5,133.5C 125.601,131.74 138.934,129.406 152.5,126.5C 156.362,126.569 160.195,126.569 164,126.5C 166.983,125.083 170.15,124.25 173.5,124C 186.212,122.827 198.879,121.327 211.5,119.5C 212.967,119.894 214.467,120.227 216,120.5C 223.345,119.666 230.679,118.666 238,117.5C 241.611,118.327 245.111,118.661 248.5,118.5 Z"/></g>
<g><path style="opacity:1" fill="#be38ab" d="M 370.5,114.5 C 378.135,120.107 384.135,127.107 388.5,135.5C 388.344,139.135 387.178,139.468 385,136.5C 384.439,137.022 383.772,137.355 383,137.5C 374.447,135.147 365.947,133.814 357.5,133.5C 351.989,131.79 346.323,131.123 340.5,131.5C 338.321,130.897 336.154,130.23 334,129.5C 328.37,130.565 322.703,131.565 317,132.5C 315.634,132.294 314.301,131.96 313,131.5C 305.536,132.582 298.036,134.248 290.5,136.5C 287.88,135.478 285.213,135.478 282.5,136.5C 280.956,136.21 279.623,135.544 278.5,134.5C 264.857,135.245 251.191,135.912 237.5,136.5C 230.034,137.432 222.534,137.432 215,136.5C 212.631,138.287 210.131,138.621 207.5,137.5C 202.049,139.008 196.716,139.342 191.5,138.5C 203.119,137.118 214.452,134.451 225.5,130.5C 228.71,131.284 231.71,130.617 234.5,128.5C 253.897,125.378 273.23,122.045 292.5,118.5C 296.927,118.817 301.261,118.817 305.5,118.5C 308.039,119.115 310.539,119.782 313,120.5C 315.316,120.153 317.649,119.82 320,119.5C 321.763,119.975 323.43,120.642 325,121.5C 326.974,120.161 329.308,120.161 332,121.5C 339.651,119.722 347.317,119.055 355,119.5C 360.386,118.286 365.553,117.619 370.5,117.5C 370.5,116.5 370.5,115.5 370.5,114.5 Z"/></g>
<g><path style="opacity:0.999" fill="#913eb8" d="M 83.5,117.5 C 81.6461,121.053 79.9795,124.72 78.5,128.5C 53.8508,136.247 28.8508,142.913 3.5,148.5C 3.5,147.167 3.5,145.833 3.5,144.5C 3.5,137.167 3.5,129.833 3.5,122.5C 3.83333,122.5 4.16667,122.5 4.5,122.5C 4.33432,126.846 4.50098,131.179 5,135.5C 30.3266,128.836 55.6599,122.169 81,115.5C 82.3756,115.684 83.2089,116.351 83.5,117.5 Z"/></g>
<g><path style="opacity:0.999" fill="#9a3eb3" d="M 78.5,128.5 C 77.342,131.989 76.0086,135.322 74.5,138.5C 50.5518,143.404 26.8851,149.404 3.5,156.5C 3.5,153.833 3.5,151.167 3.5,148.5C 28.8508,142.913 53.8508,136.247 78.5,128.5 Z"/></g>
<g><path style="opacity:0.408" fill="#dbb3e0" d="M 113.5,130.5 C 113.443,131.609 113.11,132.609 112.5,133.5C 112.167,133.5 111.833,133.5 111.5,133.5C 111.427,131.973 112.094,130.973 113.5,130.5 Z"/></g>
<g><path style="opacity:1" fill="#b039a5" d="M 234.5,128.5 C 231.71,130.617 228.71,131.284 225.5,130.5C 214.452,134.451 203.119,137.118 191.5,138.5C 188.135,138.954 184.802,139.62 181.5,140.5C 180.5,140.333 179.5,140.167 178.5,140C 180.878,139.489 183.212,138.822 185.5,138C 184.667,137.833 183.833,137.667 183,137.5C 175.981,139.713 168.814,141.213 161.5,142C 158.291,143.092 155.124,144.259 152,145.5C 151.667,145.167 151.333,144.833 151,144.5C 135.53,146.747 120.364,149.414 105.5,152.5C 105.993,150.194 106.326,147.861 106.5,145.5C 106.402,143.447 107.069,141.78 108.5,140.5C 108.369,141.376 108.702,142.043 109.5,142.5C 137.501,138.375 164.834,134.375 191.5,130.5C 192.894,130.621 194.228,130.954 195.5,131.5C 199.415,129.622 203.415,129.289 207.5,130.5C 211.438,129.556 215.438,128.889 219.5,128.5C 224.578,128.668 229.578,128.668 234.5,128.5 Z"/></g>
<g><path style="opacity:1" fill="#c33aa1" d="M 340.5,131.5 C 335.958,133.699 331.958,136.699 328.5,140.5C 320.344,141.053 312.178,141.053 304,140.5C 300.671,141.629 297.337,142.629 294,143.5C 281.332,141.904 268.499,142.904 255.5,146.5C 251.738,144.745 247.738,143.745 243.5,143.5C 242.542,143.047 241.708,142.381 241,141.5C 236.851,143.138 232.518,144.138 228,144.5C 218.902,144.062 209.735,145.395 200.5,148.5C 199.833,148.333 199.167,148.167 198.5,148C 202.414,147.103 202.248,146.603 198,146.5C 191.597,147.639 185.43,148.306 179.5,148.5C 190.662,146.252 201.829,143.586 213,140.5C 213.561,141.022 214.228,141.355 215,141.5C 222.654,139.871 230.154,138.204 237.5,136.5C 251.191,135.912 264.857,135.245 278.5,134.5C 279.623,135.544 280.956,136.21 282.5,136.5C 285.213,135.478 287.88,135.478 290.5,136.5C 298.036,134.248 305.536,132.582 313,131.5C 314.301,131.96 315.634,132.294 317,132.5C 322.703,131.565 328.37,130.565 334,129.5C 336.154,130.23 338.321,130.897 340.5,131.5 Z"/></g>
<g><path style="opacity:0.675" fill="#eebce0" d="M 359.5,135.5 C 361.5,135.5 362.5,136.5 362.5,138.5C 361.167,137.833 360.167,136.833 359.5,135.5 Z"/></g>
<g><path style="opacity:1" fill="#b739a0" d="M 237.5,136.5 C 230.154,138.204 222.654,139.871 215,141.5C 214.228,141.355 213.561,141.022 213,140.5C 201.829,143.586 190.662,146.252 179.5,148.5C 153.765,151.886 128.431,155.886 103.5,160.5C 103.5,159.5 103.5,158.5 103.5,157.5C 103.216,155.585 103.549,153.919 104.5,152.5C 104.833,152.5 105.167,152.5 105.5,152.5C 120.364,149.414 135.53,146.747 151,144.5C 151.333,144.833 151.667,145.167 152,145.5C 155.124,144.259 158.291,143.092 161.5,142C 168.814,141.213 175.981,139.713 183,137.5C 183.833,137.667 184.667,137.833 185.5,138C 183.212,138.822 180.878,139.489 178.5,140C 179.5,140.167 180.5,140.333 181.5,140.5C 184.802,139.62 188.135,138.954 191.5,138.5C 196.716,139.342 202.049,139.008 207.5,137.5C 210.131,138.621 212.631,138.287 215,136.5C 222.534,137.432 230.034,137.432 237.5,136.5 Z"/></g>
<g><path style="opacity:1" fill="#ce3fa3" d="M 357.5,133.5 C 365.947,133.814 374.447,135.147 383,137.5C 383.772,137.355 384.439,137.022 385,136.5C 387.178,139.468 388.344,139.135 388.5,135.5C 394.666,147.647 397.666,160.647 397.5,174.5C 397.5,175.167 397.5,175.833 397.5,176.5C 388.889,169.19 379.889,162.357 370.5,156C 369.004,153.286 368.004,150.453 367.5,147.5C 366.608,144.048 364.942,141.048 362.5,138.5C 362.5,136.5 361.5,135.5 359.5,135.5C 358.5,135.167 357.833,134.5 357.5,133.5 Z"/></g>
<g><path style="opacity:1" fill="#a23cad" d="M 74.5,138.5 C 73.6509,142.894 72.6509,147.228 71.5,151.5C 49.395,157.029 26.7284,163.029 3.5,169.5C 3.5,165.167 3.5,160.833 3.5,156.5C 26.8851,149.404 50.5518,143.404 74.5,138.5 Z"/></g>
<g><path style="opacity:1" fill="#c73b98" d="M 328.5,140.5 C 327.499,143.172 326.499,145.838 325.5,148.5C 324.549,149.919 324.216,151.585 324.5,153.5C 315.666,153.226 306.5,152.559 297,151.5C 295.236,151.544 293.569,151.878 292,152.5C 286.865,151.81 281.698,151.143 276.5,150.5C 266.43,151.012 256.263,151.679 246,152.5C 243.291,151.803 240.624,151.47 238,151.5C 218.58,154.688 199.246,158.355 180,162.5C 179.275,161.941 178.442,161.608 177.5,161.5C 172.443,162.847 167.443,164.347 162.5,166C 142.24,170.013 121.907,173.513 101.5,176.5C 101.5,176.167 101.5,175.833 101.5,175.5C 101.183,171.298 101.517,167.298 102.5,163.5C 102.201,165.604 102.534,167.604 103.5,169.5C 124.876,164.455 146.542,160.788 168.5,158.5C 189.029,153.517 209.696,149.184 230.5,145.5C 235.131,146.506 239.464,145.839 243.5,143.5C 247.738,143.745 251.738,144.745 255.5,146.5C 268.499,142.904 281.332,141.904 294,143.5C 297.337,142.629 300.671,141.629 304,140.5C 312.178,141.053 320.344,141.053 328.5,140.5 Z"/></g>
<g><path style="opacity:1" fill="#be3a99" d="M 243.5,143.5 C 239.464,145.839 235.131,146.506 230.5,145.5C 209.696,149.184 189.029,153.517 168.5,158.5C 146.542,160.788 124.876,164.455 103.5,169.5C 102.534,167.604 102.201,165.604 102.5,163.5C 102.205,161.265 102.539,159.265 103.5,157.5C 103.5,158.5 103.5,159.5 103.5,160.5C 128.431,155.886 153.765,151.886 179.5,148.5C 185.43,148.306 191.597,147.639 198,146.5C 202.248,146.603 202.414,147.103 198.5,148C 199.167,148.167 199.833,148.333 200.5,148.5C 209.735,145.395 218.902,144.062 228,144.5C 232.518,144.138 236.851,143.138 241,141.5C 241.708,142.381 242.542,143.047 243.5,143.5 Z"/></g>
<g><path style="opacity:0.953" fill="#d28fcb" d="M 106.5,145.5 C 106.326,147.861 105.993,150.194 105.5,152.5C 105.167,152.5 104.833,152.5 104.5,152.5C 104.41,149.848 105.076,147.515 106.5,145.5 Z"/></g>
<g><path style="opacity:1" fill="#ac3ba6" d="M 71.5,151.5 C 71.3259,153.861 70.9926,156.194 70.5,158.5C 69.4664,159.687 68.133,160.52 66.5,161C 45.0217,165.125 24.0217,169.959 3.5,175.5C 3.5,173.5 3.5,171.5 3.5,169.5C 26.7284,163.029 49.395,157.029 71.5,151.5 Z"/></g>
<g><path style="opacity:1" fill="#d2419a" d="M 367.5,147.5 C 368.004,150.453 369.004,153.286 370.5,156C 379.889,162.357 388.889,169.19 397.5,176.5C 397.666,183.175 397.5,189.842 397,196.5C 385.601,186.924 374.101,177.59 362.5,168.5C 363.6,167.395 364.267,166.062 364.5,164.5C 367.11,159.173 368.11,153.506 367.5,147.5 Z"/></g>
<g><path style="opacity:1" fill="#d8448e" d="M 325.5,148.5 C 325.353,164.686 333.353,173.019 349.5,173.5C 348.737,174.268 347.737,174.768 346.5,175C 364.776,187.64 382.109,201.473 398.5,216.5C 398.5,222.167 398.5,227.833 398.5,233.5C 371.166,206.255 340.666,183.255 307,164.5C 301.841,165.717 296.674,165.717 291.5,164.5C 290.537,164.97 290.537,165.637 291.5,166.5C 284.299,163.213 276.966,160.547 269.5,158.5C 274.176,158.17 278.676,157.837 283,157.5C 296.094,159.11 309.26,160.11 322.5,160.5C 325.063,160.263 325.063,159.763 322.5,159C 324.192,157.599 324.859,155.766 324.5,153.5C 324.216,151.585 324.549,149.919 325.5,148.5 Z"/></g>
<g><path style="opacity:1" fill="#b23ca1" d="M 70.5,158.5 C 70.6747,160.621 70.3414,162.621 69.5,164.5C 68.7326,165.172 68.0659,166.005 67.5,167C 46.1899,172.298 25.6899,177.132 6,181.5C 5.64541,182.509 4.81208,183.176 3.5,183.5C 3.5,180.833 3.5,178.167 3.5,175.5C 24.0217,169.959 45.0217,165.125 66.5,161C 68.133,160.52 69.4664,159.687 70.5,158.5 Z"/></g>
<g><path style="opacity:1" fill="#cc4191" d="M 324.5,153.5 C 324.859,155.766 324.192,157.599 322.5,159C 325.063,159.763 325.063,160.263 322.5,160.5C 309.26,160.11 296.094,159.11 283,157.5C 278.676,157.837 274.176,158.17 269.5,158.5C 247.942,154.445 227.276,157.111 207.5,166.5C 171.881,170.201 136.548,175.535 101.5,182.5C 101.5,180.5 101.5,178.5 101.5,176.5C 121.907,173.513 142.24,170.013 162.5,166C 167.443,164.347 172.443,162.847 177.5,161.5C 178.442,161.608 179.275,161.941 180,162.5C 199.246,158.355 218.58,154.688 238,151.5C 240.624,151.47 243.291,151.803 246,152.5C 256.263,151.679 266.43,151.012 276.5,150.5C 281.698,151.143 286.865,151.81 292,152.5C 293.569,151.878 295.236,151.544 297,151.5C 306.5,152.559 315.666,153.226 324.5,153.5 Z"/></g>
<g><path style="opacity:1" fill="#b83a9b" d="M 69.5,164.5 C 69.5,165.833 69.5,167.167 69.5,168.5C 68.776,170.218 68.1094,172.052 67.5,174C 46.1428,179.173 24.8095,184.339 3.5,189.5C 3.5,187.5 3.5,185.5 3.5,183.5C 4.81208,183.176 5.64541,182.509 6,181.5C 25.6899,177.132 46.1899,172.298 67.5,167C 68.0659,166.005 68.7326,165.172 69.5,164.5 Z"/></g>
<g><path style="opacity:1" fill="#db4487" d="M 398.5,233.5 C 398.5,239.833 398.5,246.167 398.5,252.5C 376.542,229.187 352.208,208.687 325.5,191C 324.251,190.26 323.251,190.427 322.5,191.5C 313.637,181.3 303.304,172.967 291.5,166.5C 290.537,165.637 290.537,164.97 291.5,164.5C 296.674,165.717 301.841,165.717 307,164.5C 340.666,183.255 371.166,206.255 398.5,233.5 Z"/></g>
<g><path style="opacity:0.69" fill="#eda5cd" d="M 364.5,164.5 C 364.267,166.062 363.6,167.395 362.5,168.5C 361.395,169.6 360.062,170.267 358.5,170.5C 360.167,168.167 362.167,166.167 364.5,164.5 Z"/></g>
<g><path style="opacity:1" fill="#d54293" d="M 362.5,168.5 C 374.101,177.59 385.601,186.924 397,196.5C 397.5,189.842 397.666,183.175 397.5,176.5C 397.5,175.833 397.5,175.167 397.5,174.5C 398.495,185.321 398.828,196.321 398.5,207.5C 398.5,210.5 398.5,213.5 398.5,216.5C 382.109,201.473 364.776,187.64 346.5,175C 347.737,174.768 348.737,174.268 349.5,173.5C 352.574,172.698 355.574,171.698 358.5,170.5C 360.062,170.267 361.395,169.6 362.5,168.5 Z"/></g>
<g><path style="opacity:1" fill="#d14589" d="M 207.5,166.5 C 201.193,169.991 195.193,173.991 189.5,178.5C 189.5,177.167 189.5,175.833 189.5,174.5C 190.978,174.762 192.311,174.429 193.5,173.5C 190.894,172.348 188.227,172.182 185.5,173C 167.165,178.04 148.665,181.206 130,182.5C 120.585,184.817 111.085,186.817 101.5,188.5C 101.737,189.791 101.404,190.791 100.5,191.5C 100.179,185.974 100.512,180.64 101.5,175.5C 101.5,175.833 101.5,176.167 101.5,176.5C 101.5,178.5 101.5,180.5 101.5,182.5C 136.548,175.535 171.881,170.201 207.5,166.5 Z"/></g>
<g><path style="opacity:1" fill="#d64381" d="M 189.5,178.5 C 187.909,180.633 185.909,182.299 183.5,183.5C 183.44,182.957 183.107,182.624 182.5,182.5C 155.645,185.537 128.978,189.87 102.5,195.5C 101.828,196.949 101.161,198.282 100.5,199.5C 100.5,196.833 100.5,194.167 100.5,191.5C 101.404,190.791 101.737,189.791 101.5,188.5C 111.085,186.817 120.585,184.817 130,182.5C 148.665,181.206 167.165,178.04 185.5,173C 188.227,172.182 190.894,172.348 193.5,173.5C 192.311,174.429 190.978,174.762 189.5,174.5C 189.5,175.833 189.5,177.167 189.5,178.5 Z"/></g>
<g><path style="opacity:1" fill="#c23e94" d="M 69.5,168.5 C 69.6282,172.881 69.2949,177.215 68.5,181.5C 67.6906,182.469 66.6906,183.302 65.5,184C 44.5432,188.572 23.8765,194.072 3.5,200.5C 3.5,196.833 3.5,193.167 3.5,189.5C 24.8095,184.339 46.1428,179.173 67.5,174C 68.1094,172.052 68.776,170.218 69.5,168.5 Z"/></g>
<g><path style="opacity:1" fill="#cb3aa5" d="M 429.5,166.5 C 430.114,169.308 431.281,171.975 433,174.5C 456.261,196.914 477.094,221.248 495.5,247.5C 495.5,255.167 495.5,262.833 495.5,270.5C 477.199,241.849 455.865,215.516 431.5,191.5C 431.802,188.941 431.468,186.607 430.5,184.5C 429.835,178.523 429.502,172.523 429.5,166.5 Z"/></g>
<g><path style="opacity:1" fill="#da447a" d="M 183.5,183.5 C 182.2,186.432 180.2,188.766 177.5,190.5C 177.53,189.503 177.03,188.836 176,188.5C 151.044,192.322 126.21,196.322 101.5,200.5C 101.737,201.791 101.404,202.791 100.5,203.5C 100.5,202.167 100.5,200.833 100.5,199.5C 101.161,198.282 101.828,196.949 102.5,195.5C 128.978,189.87 155.645,185.537 182.5,182.5C 183.107,182.624 183.44,182.957 183.5,183.5 Z"/></g>
<g><path style="opacity:1" fill="#e6527a" d="M 306.5,227.5 C 291.201,218.719 275.534,210.552 259.5,203C 249.503,198.39 239.17,194.89 228.5,192.5C 258.958,183.153 283.458,191.486 302,217.5C 303.786,220.736 305.286,224.07 306.5,227.5 Z"/></g>
<g><path style="opacity:1" fill="#de4581" d="M 398.5,252.5 C 398.666,260.174 398.5,267.841 398,275.5C 380.556,254.387 360.89,235.72 339,219.5C 338.536,220.094 338.369,220.761 338.5,221.5C 334.512,210.829 329.178,200.829 322.5,191.5C 323.251,190.427 324.251,190.26 325.5,191C 352.208,208.687 376.542,229.187 398.5,252.5 Z"/></g>
<g><path style="opacity:1" fill="#cc3e88" d="M 68.5,181.5 C 68.5,184.167 68.5,186.833 68.5,189.5C 67.5386,191.265 67.2053,193.265 67.5,195.5C 45.9629,201.249 24.6296,206.916 3.5,212.5C 3.5,208.5 3.5,204.5 3.5,200.5C 23.8765,194.072 44.5432,188.572 65.5,184C 66.6906,183.302 67.6906,182.469 68.5,181.5 Z"/></g>
<g><path style="opacity:1" fill="#e7597b" d="M 177.5,190.5 C 174.241,194.696 171.241,199.03 168.5,203.5C 168.116,201.707 166.95,200.707 165,200.5C 143.416,203.694 121.916,207.361 100.5,211.5C 100.5,215.167 100.5,218.833 100.5,222.5C 100.5,226.5 100.5,230.5 100.5,234.5C 100.5,239.167 100.5,243.833 100.5,248.5C 100.5,253.833 100.5,259.167 100.5,264.5C 100.5,272.833 100.5,281.167 100.5,289.5C 99.2128,260.986 99.2128,232.32 100.5,203.5C 101.404,202.791 101.737,201.791 101.5,200.5C 126.21,196.322 151.044,192.322 176,188.5C 177.03,188.836 177.53,189.503 177.5,190.5 Z"/></g>
<g><path style="opacity:1" fill="#e84b6e" d="M 228.5,192.5 C 239.17,194.89 249.503,198.39 259.5,203C 275.534,210.552 291.201,218.719 306.5,227.5C 310.236,237.35 311.236,247.35 309.5,257.5C 309.665,253.818 309.499,250.152 309,246.5C 280.459,225.898 249.126,210.898 215,201.5C 213.862,201.989 212.695,202.322 211.5,202.5C 216.147,197.537 221.814,194.204 228.5,192.5 Z"/></g>
<g><path style="opacity:1" fill="#ea4a67" d="M 309.5,257.5 C 309.678,261.122 309.011,264.456 307.5,267.5C 307.657,266.127 307.49,264.793 307,263.5C 274.858,240.016 239.358,223.35 200.5,213.5C 203.188,208.812 206.855,205.145 211.5,202.5C 212.695,202.322 213.862,201.989 215,201.5C 249.126,210.898 280.459,225.898 309,246.5C 309.499,250.152 309.665,253.818 309.5,257.5 Z"/></g>
<g><path style="opacity:1" fill="#e9718f" d="M 3.5,144.5 C 3.5,145.833 3.5,147.167 3.5,148.5C 3.5,151.167 3.5,153.833 3.5,156.5C 3.5,160.833 3.5,165.167 3.5,169.5C 3.5,171.5 3.5,173.5 3.5,175.5C 3.5,178.167 3.5,180.833 3.5,183.5C 3.5,185.5 3.5,187.5 3.5,189.5C 3.5,193.167 3.5,196.833 3.5,200.5C 3.5,204.5 3.5,208.5 3.5,212.5C 3.33591,215.187 3.50258,217.854 4,220.5C 7.14671,218.056 10.48,217.056 14,217.5C 16.6549,215.947 19.4883,214.78 22.5,214C 36.9375,210.743 51.2708,207.076 65.5,203C 67.291,200.894 67.9577,198.394 67.5,195.5C 67.2053,193.265 67.5386,191.265 68.5,189.5C 68.5,230.833 68.5,272.167 68.5,313.5C 68.1667,313.5 67.8333,313.5 67.5,313.5C 67.5,308.833 67.5,304.167 67.5,299.5C 67.5,294.833 67.5,290.167 67.5,285.5C 67.5,280.833 67.5,276.167 67.5,271.5C 67.5,266.167 67.5,260.833 67.5,255.5C 67.5,250.833 67.5,246.167 67.5,241.5C 67.5,235.833 67.5,230.167 67.5,224.5C 67.5,222.5 67.5,220.5 67.5,218.5C 67.5,216.833 67.5,215.167 67.5,213.5C 61.4499,213.596 55.7832,215.096 50.5,218C 34.7694,222.016 19.1027,226.182 3.5,230.5C 3.5,232.5 3.5,234.5 3.5,236.5C 3.5,238.5 3.5,240.5 3.5,242.5C 3.5,250.833 3.5,259.167 3.5,267.5C 3.5,272.5 3.5,277.5 3.5,282.5C 3.5,288.5 3.5,294.5 3.5,300.5C 3.5,305.833 3.5,311.167 3.5,316.5C 3.5,321.833 3.5,327.167 3.5,332.5C 3.5,336.5 3.5,340.5 3.5,344.5C 2.16667,277.833 2.16667,211.167 3.5,144.5 Z"/></g>
<g><path style="opacity:1" fill="#d33f80" d="M 67.5,195.5 C 67.9577,198.394 67.291,200.894 65.5,203C 51.2708,207.076 36.9375,210.743 22.5,214C 19.4883,214.78 16.6549,215.947 14,217.5C 10.48,217.056 7.14671,218.056 4,220.5C 3.50258,217.854 3.33591,215.187 3.5,212.5C 24.6296,206.916 45.9629,201.249 67.5,195.5 Z"/></g>
<g><path style="opacity:1" fill="#ec4d63" d="M 168.5,203.5 C 165.795,209.568 163.128,215.568 160.5,221.5C 158.708,220.691 156.708,220.191 154.5,220C 141.167,219.333 127.833,219.333 114.5,220C 109.725,220.346 105.058,221.179 100.5,222.5C 100.5,218.833 100.5,215.167 100.5,211.5C 121.916,207.361 143.416,203.694 165,200.5C 166.95,200.707 168.116,201.707 168.5,203.5 Z"/></g>
<g><path style="opacity:1" fill="#e3456d" d="M 67.5,218.5 C 46.049,224.123 24.7156,230.123 3.5,236.5C 3.5,234.5 3.5,232.5 3.5,230.5C 19.1027,226.182 34.7694,222.016 50.5,218C 55.7832,215.096 61.4499,213.596 67.5,213.5C 67.5,215.167 67.5,216.833 67.5,218.5 Z"/></g>
<g><path style="opacity:1" fill="#f1505c" d="M 160.5,221.5 C 159.271,228.312 157.938,234.979 156.5,241.5C 156.5,238.833 156.5,236.167 156.5,233.5C 137.805,232.153 119.139,232.487 100.5,234.5C 100.5,230.5 100.5,226.5 100.5,222.5C 105.058,221.179 109.725,220.346 114.5,220C 127.833,219.333 141.167,219.333 154.5,220C 156.708,220.191 158.708,220.691 160.5,221.5 Z"/></g>
<g><path style="opacity:1" fill="#ee4d61" d="M 200.5,213.5 C 239.358,223.35 274.858,240.016 307,263.5C 307.49,264.793 307.657,266.127 307.5,267.5C 306.903,272.017 305.237,276.017 302.5,279.5C 302.703,277.61 302.037,276.11 300.5,275C 269.223,251.449 234.39,235.282 196,226.5C 194.744,226.648 193.577,226.982 192.5,227.5C 194.159,222.173 196.826,217.507 200.5,213.5 Z"/></g>
<g><path style="opacity:0.999" fill="#e84866" d="M 67.5,218.5 C 67.5,220.5 67.5,222.5 67.5,224.5C 47.8335,229.554 28.1668,234.72 8.5,240C 6.80678,240.847 5.14011,241.68 3.5,242.5C 3.5,240.5 3.5,238.5 3.5,236.5C 24.7156,230.123 46.049,224.123 67.5,218.5 Z"/></g>
<g><path style="opacity:1" fill="#f04e5b" d="M 302.5,279.5 C 300.912,283.41 298.579,286.743 295.5,289.5C 295.489,287.983 294.823,286.816 293.5,286C 262.211,262.514 227.545,247.014 189.5,239.5C 190.097,235.381 191.097,231.381 192.5,227.5C 193.577,226.982 194.744,226.648 196,226.5C 234.39,235.282 269.223,251.449 300.5,275C 302.037,276.11 302.703,277.61 302.5,279.5 Z"/></g>
<g><path style="opacity:1" fill="#e55783" d="M 398.5,207.5 C 399.167,221.163 399.5,234.996 399.5,249C 399.56,274.347 398.894,299.514 397.5,324.5C 397.5,321.5 397.5,318.5 397.5,315.5C 397.666,308.492 397.5,301.492 397,294.5C 381.574,274.406 364.074,256.239 344.5,240C 343.184,239.472 342.517,239.972 342.5,241.5C 341.062,234.979 339.729,228.312 338.5,221.5C 338.369,220.761 338.536,220.094 339,219.5C 360.89,235.72 380.556,254.387 398,275.5C 398.5,267.841 398.666,260.174 398.5,252.5C 398.5,246.167 398.5,239.833 398.5,233.5C 398.5,227.833 398.5,222.167 398.5,216.5C 398.5,213.5 398.5,210.5 398.5,207.5 Z"/></g>
<g><path style="opacity:0.999" fill="#ef4c5b" d="M 67.5,224.5 C 67.5,230.167 67.5,235.833 67.5,241.5C 45.0176,247.41 23.6843,256.077 3.5,267.5C 3.5,259.167 3.5,250.833 3.5,242.5C 5.14011,241.68 6.80678,240.847 8.5,240C 28.1668,234.72 47.8335,229.554 67.5,224.5 Z"/></g>
<g><path style="opacity:1" fill="#f44f54" d="M 156.5,241.5 C 156.5,245.833 156.5,250.167 156.5,254.5C 155.527,252.052 155.194,249.385 155.5,246.5C 137.144,245.467 118.811,246.134 100.5,248.5C 100.5,243.833 100.5,239.167 100.5,234.5C 119.139,232.487 137.805,232.153 156.5,233.5C 156.5,236.167 156.5,238.833 156.5,241.5 Z"/></g>
<g><path style="opacity:1" fill="#e44674" d="M 397.5,315.5 C 389.864,306.355 382.364,297.021 375,287.5C 365.14,277.64 355.306,267.806 345.5,258C 344.552,257.517 343.552,257.351 342.5,257.5C 342.5,252.167 342.5,246.833 342.5,241.5C 342.517,239.972 343.184,239.472 344.5,240C 364.074,256.239 381.574,274.406 397,294.5C 397.5,301.492 397.666,308.492 397.5,315.5 Z"/></g>
<g><path style="opacity:1" fill="#f45055" d="M 295.5,289.5 C 292.789,293.212 289.456,296.212 285.5,298.5C 285.489,296.983 284.823,295.816 283.5,295C 255.075,274.625 223.742,260.458 189.5,252.5C 189.5,254.167 189.5,255.833 189.5,257.5C 188.234,251.63 188.234,245.63 189.5,239.5C 227.545,247.014 262.211,262.514 293.5,286C 294.823,286.816 295.489,287.983 295.5,289.5 Z"/></g>
<g><path style="opacity:1" fill="#f74f4e" d="M 156.5,254.5 C 156.5,255.5 156.5,256.5 156.5,257.5C 156.5,259.167 156.5,260.833 156.5,262.5C 137.732,260.892 119.066,261.558 100.5,264.5C 100.5,259.167 100.5,253.833 100.5,248.5C 118.811,246.134 137.144,245.467 155.5,246.5C 155.194,249.385 155.527,252.052 156.5,254.5 Z"/></g>
<g><path style="opacity:0.999" fill="#f34e54" d="M 67.5,241.5 C 67.5,246.167 67.5,250.833 67.5,255.5C 44.8467,261.384 23.5134,270.384 3.5,282.5C 3.5,277.5 3.5,272.5 3.5,267.5C 23.6843,256.077 45.0176,247.41 67.5,241.5 Z"/></g>
<g><path style="opacity:1" fill="#f75250" d="M 285.5,298.5 C 281.26,302.455 276.26,305.122 270.5,306.5C 270.586,305.504 270.252,304.671 269.5,304C 246.339,288.272 221.172,276.772 194,269.5C 193.235,269.57 192.735,269.903 192.5,270.5C 190.511,266.503 189.511,262.17 189.5,257.5C 189.5,255.833 189.5,254.167 189.5,252.5C 223.742,260.458 255.075,274.625 283.5,295C 284.823,295.816 285.489,296.983 285.5,298.5 Z"/></g>
<g><path style="opacity:1" fill="#df5f9c" d="M 495.5,136.5 C 496.817,214.347 496.817,292.347 495.5,370.5C 494.672,376.653 494.172,382.987 494,389.5C 479.31,347.109 458.643,308.109 432,272.5C 431.5,279.826 431.334,287.159 431.5,294.5C 431.813,298.042 431.479,301.375 430.5,304.5C 430.5,264.5 430.5,224.5 430.5,184.5C 431.468,186.607 431.802,188.941 431.5,191.5C 431.5,197.5 431.5,203.5 431.5,209.5C 431.5,217.167 431.5,224.833 431.5,232.5C 431.334,239.841 431.5,247.174 432,254.5C 458.272,286.498 479.272,321.832 495,360.5C 495.5,349.172 495.667,337.838 495.5,326.5C 495.5,316.167 495.5,305.833 495.5,295.5C 495.5,287.167 495.5,278.833 495.5,270.5C 495.5,262.833 495.5,255.167 495.5,247.5C 495.5,210.5 495.5,173.5 495.5,136.5 Z"/></g>
<g><path style="opacity:1" fill="#d43d91" d="M 431.5,232.5 C 456.79,261.061 478.123,292.394 495.5,326.5C 495.667,337.838 495.5,349.172 495,360.5C 479.272,321.832 458.272,286.498 432,254.5C 431.5,247.174 431.334,239.841 431.5,232.5 Z"/></g>
<g><path style="opacity:1" fill="#d13b98" d="M 431.5,209.5 C 456.245,235.668 477.578,264.335 495.5,295.5C 495.5,305.833 495.5,316.167 495.5,326.5C 478.123,292.394 456.79,261.061 431.5,232.5C 431.5,224.833 431.5,217.167 431.5,209.5 Z"/></g>
<g><path style="opacity:1" fill="#cd3a9f" d="M 431.5,191.5 C 455.865,215.516 477.199,241.849 495.5,270.5C 495.5,278.833 495.5,287.167 495.5,295.5C 477.578,264.335 456.245,235.668 431.5,209.5C 431.5,203.5 431.5,197.5 431.5,191.5 Z"/></g>
<g><path style="opacity:0.999" fill="#f74f4e" d="M 67.5,255.5 C 67.5,260.833 67.5,266.167 67.5,271.5C 44.8819,278.478 23.5485,288.145 3.5,300.5C 3.5,294.5 3.5,288.5 3.5,282.5C 23.5134,270.384 44.8467,261.384 67.5,255.5 Z"/></g>
<g><path style="opacity:1" fill="#e7496f" d="M 342.5,257.5 C 343.552,257.351 344.552,257.517 345.5,258C 355.306,267.806 365.14,277.64 375,287.5C 382.364,297.021 389.864,306.355 397.5,315.5C 397.5,318.5 397.5,321.5 397.5,324.5C 397.784,330.417 397.117,336.084 395.5,341.5C 395.752,338.68 395.252,336.014 394,333.5C 378.703,310.973 361.036,290.306 341,271.5C 340.722,272.416 340.222,273.082 339.5,273.5C 339.366,271.708 339.699,270.042 340.5,268.5C 342.217,265.155 342.884,261.489 342.5,257.5 Z"/></g>
<g><path style="opacity:0.937" fill="#ffa099" d="M 156.5,257.5 C 157.525,260.974 158.192,264.64 158.5,268.5C 157.262,266.786 156.595,264.786 156.5,262.5C 156.5,260.833 156.5,259.167 156.5,257.5 Z"/></g>
<g><path style="opacity:0.949" fill="#f59dae" d="M 342.5,257.5 C 342.884,261.489 342.217,265.155 340.5,268.5C 340.808,264.64 341.475,260.974 342.5,257.5 Z"/></g>
<g><path style="opacity:1" fill="#eb4c68" d="M 395.5,341.5 C 395.211,347.672 393.544,353.338 390.5,358.5C 390.245,355.984 389.411,353.65 388,351.5C 376.12,333.085 362.786,315.751 348,299.5C 343.906,294.898 339.406,290.898 334.5,287.5C 336.193,282.748 337.86,278.081 339.5,273.5C 340.222,273.082 340.722,272.416 341,271.5C 361.036,290.306 378.703,310.973 394,333.5C 395.252,336.014 395.752,338.68 395.5,341.5 Z"/></g>
<g><path style="opacity:1" fill="#fc5444" d="M 156.5,262.5 C 156.595,264.786 157.262,266.786 158.5,268.5C 159.301,270.042 159.634,271.708 159.5,273.5C 159.41,276.152 160.076,278.485 161.5,280.5C 163.403,283.979 165.07,287.646 166.5,291.5C 145.25,287.696 123.917,287.529 102.5,291C 101.915,292.302 101.249,293.469 100.5,294.5C 100.5,292.833 100.5,291.167 100.5,289.5C 100.5,281.167 100.5,272.833 100.5,264.5C 119.066,261.558 137.732,260.892 156.5,262.5 Z"/></g>
<g><path style="opacity:0.894" fill="#ffaba1" d="M 159.5,273.5 C 160.924,275.515 161.59,277.848 161.5,280.5C 160.076,278.485 159.41,276.152 159.5,273.5 Z"/></g>
<g><path style="opacity:1" fill="#fb584b" d="M 270.5,306.5 C 263.893,309.215 256.893,310.549 249.5,310.5C 244.588,310.579 239.921,309.912 235.5,308.5C 233.485,307.076 231.152,306.41 228.5,306.5C 223.914,305.54 219.914,303.54 216.5,300.5C 216.027,299.094 215.027,298.427 213.5,298.5C 203.454,291.453 196.454,282.12 192.5,270.5C 192.735,269.903 193.235,269.57 194,269.5C 221.172,276.772 246.339,288.272 269.5,304C 270.252,304.671 270.586,305.504 270.5,306.5 Z"/></g>
<g><path style="opacity:0.999" fill="#fa5146" d="M 67.5,271.5 C 67.5,276.167 67.5,280.833 67.5,285.5C 44.5404,292.647 23.2071,302.981 3.5,316.5C 3.5,311.167 3.5,305.833 3.5,300.5C 23.5485,288.145 44.8819,278.478 67.5,271.5 Z"/></g>
<g><path style="opacity:1" fill="#db4387" d="M 495.5,370.5 C 496.568,387.174 494.901,403.507 490.5,419.5C 477.529,374.564 457.863,332.897 431.5,294.5C 431.334,287.159 431.5,279.826 432,272.5C 458.643,308.109 479.31,347.109 494,389.5C 494.172,382.987 494.672,376.653 495.5,370.5 Z"/></g>
<g><path style="opacity:1" fill="#fd5341" d="M 67.5,285.5 C 67.5,290.167 67.5,294.833 67.5,299.5C 44.4686,307.348 23.1352,318.348 3.5,332.5C 3.5,327.167 3.5,321.833 3.5,316.5C 23.2071,302.981 44.5404,292.647 67.5,285.5 Z"/></g>
<g><path style="opacity:1" fill="#ee4e62" d="M 334.5,287.5 C 339.406,290.898 343.906,294.898 348,299.5C 362.786,315.751 376.12,333.085 388,351.5C 389.411,353.65 390.245,355.984 390.5,358.5C 389.41,363.568 387.076,367.901 383.5,371.5C 369.495,344.558 351.329,320.558 329,299.5C 328.617,300.056 328.117,300.389 327.5,300.5C 329.583,296 331.916,291.666 334.5,287.5 Z"/></g>
<g><path style="opacity:1" fill="#ff5d40" d="M 166.5,291.5 C 169.991,297.807 173.991,303.807 178.5,309.5C 179.08,311.749 180.413,313.415 182.5,314.5C 182.414,315.496 182.748,316.329 183.5,317C 174.894,315.688 166.228,314.355 157.5,313C 139.07,310.735 120.736,311.235 102.5,314.5C 101.831,312.369 101.165,310.369 100.5,308.5C 100.5,303.833 100.5,299.167 100.5,294.5C 101.249,293.469 101.915,292.302 102.5,291C 123.917,287.529 145.25,287.696 166.5,291.5 Z"/></g>
<g><path style="opacity:1" fill="#de4481" d="M 431.5,294.5 C 457.863,332.897 477.529,374.564 490.5,419.5C 488.287,426.916 485.287,433.916 481.5,440.5C 472.895,408.864 461.395,378.197 447,348.5C 442.216,338.577 436.716,329.244 430.5,320.5C 430.5,315.167 430.5,309.833 430.5,304.5C 431.479,301.375 431.813,298.042 431.5,294.5 Z"/></g>
<g><path style="opacity:0.467" fill="#ffb9b0" d="M 213.5,298.5 C 215.027,298.427 216.027,299.094 216.5,300.5C 214.973,300.573 213.973,299.906 213.5,298.5 Z"/></g>
<g><path style="opacity:1" fill="#f14f5c" d="M 383.5,371.5 C 381.478,375.522 378.478,378.522 374.5,380.5C 363.236,359.652 349.736,340.319 334,322.5C 329.906,317.898 325.406,313.898 320.5,310.5C 320.5,310.167 320.5,309.833 320.5,309.5C 322.603,306.28 324.936,303.28 327.5,300.5C 328.117,300.389 328.617,300.056 329,299.5C 351.329,320.558 369.495,344.558 383.5,371.5 Z"/></g>
<g><path style="opacity:1" fill="#ff593f" d="M 67.5,299.5 C 67.5,304.167 67.5,308.833 67.5,313.5C 44.3686,322.732 23.0352,335.065 3.5,350.5C 3.06513,348.297 3.06513,346.297 3.5,344.5C 3.5,340.5 3.5,336.5 3.5,332.5C 23.1352,318.348 44.4686,307.348 67.5,299.5 Z"/></g>
<g><path style="opacity:0.925" fill="#ffa093" d="M 228.5,306.5 C 231.152,306.41 233.485,307.076 235.5,308.5C 232.848,308.59 230.515,307.924 228.5,306.5 Z"/></g>
<g><path style="opacity:0.812" fill="#ffbeaf" d="M 178.5,309.5 C 180.587,310.585 181.92,312.251 182.5,314.5C 180.413,313.415 179.08,311.749 178.5,309.5 Z"/></g>
<g><path style="opacity:1" fill="#ff6b46" d="M 100.5,308.5 C 101.165,310.369 101.831,312.369 102.5,314.5C 120.736,311.235 139.07,310.735 157.5,313C 166.228,314.355 174.894,315.688 183.5,317C 182.748,316.329 182.414,315.496 182.5,314.5C 197.166,328.334 214.5,337.167 234.5,341C 241.12,342.137 247.786,342.637 254.5,342.5C 250.353,343.325 246.019,343.825 241.5,344C 263.364,358.366 281.698,376.2 296.5,397.5C 292.818,397.665 289.152,397.499 285.5,397C 237.833,338.683 176.5,314.517 101.5,324.5C 100.551,319.26 100.218,313.927 100.5,308.5 Z"/></g>
<g><path style="opacity:0.62" fill="#feb9ba" d="M 320.5,309.5 C 320.5,309.833 320.5,310.167 320.5,310.5C 319.5,312.167 318.167,313.5 316.5,314.5C 317.08,312.251 318.413,310.585 320.5,309.5 Z"/></g>
<g><path style="opacity:1" fill="#f45055" d="M 320.5,310.5 C 325.406,313.898 329.906,317.898 334,322.5C 349.736,340.319 363.236,359.652 374.5,380.5C 371.399,383.933 367.732,386.6 363.5,388.5C 363.611,387.883 363.944,387.383 364.5,387C 350.303,361.984 332.97,339.484 312.5,319.5C 313.167,318.5 313.833,317.5 314.5,316.5C 314.833,315.5 315.5,314.833 316.5,314.5C 318.167,313.5 319.5,312.167 320.5,310.5 Z"/></g>
<g><path style="opacity:0.78" fill="#fea19e" d="M 314.5,316.5 C 313.833,317.5 313.167,318.5 312.5,319.5C 311.078,320.925 309.411,321.925 307.5,322.5C 309.239,319.757 311.573,317.757 314.5,316.5 Z"/></g>
<g><path style="opacity:1" fill="#f7524f" d="M 312.5,319.5 C 332.97,339.484 350.303,361.984 364.5,387C 363.944,387.383 363.611,387.883 363.5,388.5C 359.183,390.94 354.517,392.607 349.5,393.5C 348.489,389.144 346.656,385.144 344,381.5C 331.48,362.173 316.813,344.506 300,328.5C 299.329,329.252 298.496,329.586 297.5,329.5C 300.796,327.179 304.129,324.846 307.5,322.5C 309.411,321.925 311.078,320.925 312.5,319.5 Z"/></g>
<g><path style="opacity:1" fill="#ff6e44" d="M 296.5,397.5 C 305.167,397.5 313.833,397.5 322.5,397.5C 307.009,398.496 291.342,398.83 275.5,398.5C 230.982,345.931 174.315,323.931 105.5,332.5C 103.886,332.197 102.552,331.53 101.5,330.5C 101.5,328.5 101.5,326.5 101.5,324.5C 176.5,314.517 237.833,338.683 285.5,397C 289.152,397.499 292.818,397.665 296.5,397.5 Z"/></g>
<g><path style="opacity:1" fill="#ff6540" d="M 67.5,313.5 C 67.8333,313.5 68.1667,313.5 68.5,313.5C 68.5,315.833 68.5,318.167 68.5,320.5C 68.8,325.099 68.4667,329.599 67.5,334C 43.9461,343.018 23.1128,356.184 5,373.5C 4.82382,369.312 4.32382,365.312 3.5,361.5C 3.5,357.833 3.5,354.167 3.5,350.5C 23.0352,335.065 44.3686,322.732 67.5,313.5 Z"/></g>
<g><path style="opacity:1" fill="#e1487b" d="M 430.5,320.5 C 436.716,329.244 442.216,338.577 447,348.5C 461.395,378.197 472.895,408.864 481.5,440.5C 478.607,446.388 474.94,451.722 470.5,456.5C 462.978,416.601 449.311,378.934 429.5,343.5C 428.824,344.602 428.158,345.602 427.5,346.5C 428.679,337.712 429.679,329.046 430.5,320.5 Z"/></g>
<g><path style="opacity:1" fill="#ff7444" d="M 101.5,330.5 C 102.552,331.53 103.886,332.197 105.5,332.5C 174.315,323.931 230.982,345.931 275.5,398.5C 274.167,398.5 272.833,398.5 271.5,398.5C 269.167,398.5 266.833,398.5 264.5,398.5C 221.041,351.122 167.374,332.122 103.5,341.5C 102.313,338.054 101.646,334.387 101.5,330.5 Z"/></g>
<g><path style="opacity:1" fill="#fb5549" d="M 349.5,393.5 C 345.8,395.245 341.8,396.245 337.5,396.5C 325.44,374.61 310.106,355.11 291.5,338C 289.783,336.441 287.783,335.608 285.5,335.5C 289.182,332.992 293.182,330.992 297.5,329.5C 298.496,329.586 299.329,329.252 300,328.5C 316.813,344.506 331.48,362.173 344,381.5C 346.656,385.144 348.489,389.144 349.5,393.5 Z"/></g>
<g><path style="opacity:1" fill="#fd5443" d="M 285.5,335.5 C 287.783,335.608 289.783,336.441 291.5,338C 310.106,355.11 325.44,374.61 337.5,396.5C 332.547,397.329 327.547,397.663 322.5,397.5C 321.955,395.407 321.122,393.407 320,391.5C 306.715,372.056 291.215,354.723 273.5,339.5C 276.152,339.59 278.485,338.924 280.5,337.5C 281.93,336.463 283.597,335.796 285.5,335.5 Z"/></g>
<g><path style="opacity:1" fill="#ff7944" d="M 264.5,398.5 C 260.833,398.5 257.167,398.5 253.5,398.5C 213.108,358.258 164.441,341.924 107.5,349.5C 106.261,349.058 105.261,348.391 104.5,347.5C 103.659,345.621 103.325,343.621 103.5,341.5C 167.374,332.122 221.041,351.122 264.5,398.5 Z"/></g>
<g><path style="opacity:0.922" fill="#ffa597" d="M 280.5,337.5 C 278.485,338.924 276.152,339.59 273.5,339.5C 275.515,338.076 277.848,337.41 280.5,337.5 Z"/></g>
<g><path style="opacity:1" fill="#ff5c40" d="M 273.5,339.5 C 291.215,354.723 306.715,372.056 320,391.5C 321.122,393.407 321.955,395.407 322.5,397.5C 313.833,397.5 305.167,397.5 296.5,397.5C 281.698,376.2 263.364,358.366 241.5,344C 246.019,343.825 250.353,343.325 254.5,342.5C 260.847,341.593 267.18,340.593 273.5,339.5 Z"/></g>
<g><path style="opacity:1" fill="#ff7345" d="M 68.5,320.5 C 69.4872,325.305 69.8205,330.305 69.5,335.5C 69.1977,339.79 69.8643,343.79 71.5,347.5C 71.5,347.833 71.5,348.167 71.5,348.5C 71.5858,349.496 71.2524,350.329 70.5,351C 45.7185,361.121 24.2185,375.954 6,395.5C 5.61742,394.944 5.11742,394.611 4.5,394.5C 3.52343,383.581 3.19009,372.581 3.5,361.5C 4.32382,365.312 4.82382,369.312 5,373.5C 23.1128,356.184 43.9461,343.018 67.5,334C 68.4667,329.599 68.8,325.099 68.5,320.5 Z"/></g>
<g><path style="opacity:0.949" fill="#ffad91" d="M 69.5,335.5 C 70.6167,339.295 71.2833,343.295 71.5,347.5C 69.8643,343.79 69.1977,339.79 69.5,335.5 Z"/></g>
<g><path style="opacity:1" fill="#e44875" d="M 470.5,456.5 C 467.848,460.817 464.515,464.484 460.5,467.5C 453.759,430.445 441.926,395.111 425,361.5C 424.617,362.056 424.117,362.389 423.5,362.5C 424.833,357.167 426.167,351.833 427.5,346.5C 428.158,345.602 428.824,344.602 429.5,343.5C 449.311,378.934 462.978,416.601 470.5,456.5 Z"/></g>
<g><path style="opacity:1" fill="#ff8046" d="M 104.5,347.5 C 105.261,348.391 106.261,349.058 107.5,349.5C 164.441,341.924 213.108,358.258 253.5,398.5C 248.821,398.666 244.155,398.499 239.5,398C 201.883,365.077 158.216,352.243 108.5,359.5C 106.572,355.715 105.238,351.715 104.5,347.5 Z"/></g>
<g><path style="opacity:1" fill="#ff8b4e" d="M 253.5,398.5 C 257.167,398.5 260.833,398.5 264.5,398.5C 266.833,398.5 269.167,398.5 271.5,398.5C 256.598,399.823 241.598,399.823 226.5,398.5C 193.082,371.975 155.082,361.642 112.5,367.5C 110.642,365.117 109.308,362.45 108.5,359.5C 158.216,352.243 201.883,365.077 239.5,398C 244.155,398.499 248.821,398.666 253.5,398.5 Z"/></g>
<g><path style="opacity:1" fill="#ff7f47" d="M 71.5,348.5 C 73.4561,354.313 75.1227,360.313 76.5,366.5C 76.5858,367.496 76.2524,368.329 75.5,369C 49.3296,379.827 27.4962,396.327 10,418.5C 9.61742,417.944 9.11742,417.611 8.5,417.5C 5.99798,410.16 4.66465,402.493 4.5,394.5C 5.11742,394.611 5.61742,394.944 6,395.5C 24.2185,375.954 45.7185,361.121 70.5,351C 71.2524,350.329 71.5858,349.496 71.5,348.5 Z"/></g>
<g><path style="opacity:1" fill="#e74a6f" d="M 460.5,467.5 C 456.858,470.987 452.858,473.987 448.5,476.5C 443.761,442.782 434.261,410.449 420,379.5C 418.855,378.316 417.688,378.316 416.5,379.5C 419.03,373.909 421.363,368.242 423.5,362.5C 424.117,362.389 424.617,362.056 425,361.5C 441.926,395.111 453.759,430.445 460.5,467.5 Z"/></g>
<g><path style="opacity:1" fill="#ff8e48" d="M 226.5,398.5 C 215.5,398.5 204.5,398.5 193.5,398.5C 193.631,397.624 193.298,396.957 192.5,396.5C 171.667,386.459 149.667,381.793 126.5,382.5C 125.5,382.167 124.833,381.5 124.5,380.5C 122.452,377.785 120.118,375.452 117.5,373.5C 115.367,371.909 113.701,369.909 112.5,367.5C 155.082,361.642 193.082,371.975 226.5,398.5 Z"/></g>
<g><path style="opacity:1" fill="#ffcba8" d="M 117.5,373.5 C 120.118,375.452 122.452,377.785 124.5,380.5C 121.189,379.189 118.855,376.855 117.5,373.5 Z"/></g>
<g><path style="opacity:1" fill="#ff8c4a" d="M 76.5,366.5 C 79.0698,371.311 81.4032,376.311 83.5,381.5C 83.5858,382.496 83.2524,383.329 82.5,384C 56.1439,395.023 34.4773,412.023 17.5,435C 16.9056,435.464 16.2389,435.631 15.5,435.5C 12.0927,430.003 9.75936,424.003 8.5,417.5C 9.11742,417.611 9.61742,417.944 10,418.5C 27.4962,396.327 49.3296,379.827 75.5,369C 76.2524,368.329 76.5858,367.496 76.5,366.5 Z"/></g>
<g><path style="opacity:1" fill="#ea4c68" d="M 448.5,476.5 C 444.167,479.669 439.5,482.336 434.5,484.5C 431.154,452.114 422.488,421.114 408.5,391.5C 411.18,387.463 413.846,383.463 416.5,379.5C 417.688,378.316 418.855,378.316 420,379.5C 434.261,410.449 443.761,442.782 448.5,476.5 Z"/></g>
<g><path style="opacity:1" fill="#ff9e54" d="M 126.5,382.5 C 149.667,381.793 171.667,386.459 192.5,396.5C 193.298,396.957 193.631,397.624 193.5,398.5C 181.028,398.566 168.695,397.566 156.5,395.5C 154.485,394.076 152.152,393.41 149.5,393.5C 140.602,392.216 132.936,388.55 126.5,382.5 Z"/></g>
<g><path style="opacity:1" fill="#ff984b" d="M 83.5,381.5 C 86.9104,386.64 90.5771,391.64 94.5,396.5C 94.4142,397.496 94.7476,398.329 95.5,399C 66.5228,408.978 43.6894,426.812 27,452.5C 26.3292,451.748 25.4959,451.414 24.5,451.5C 20.671,446.662 17.671,441.328 15.5,435.5C 16.2389,435.631 16.9056,435.464 17.5,435C 34.4773,412.023 56.1439,395.023 82.5,384C 83.2524,383.329 83.5858,382.496 83.5,381.5 Z"/></g>
<g><path style="opacity:0.62" fill="#ffcea5" d="M 149.5,393.5 C 152.152,393.41 154.485,394.076 156.5,395.5C 153.848,395.59 151.515,394.924 149.5,393.5 Z"/></g>
<g><path style="opacity:1" fill="#ee4c61" d="M 408.5,391.5 C 422.488,421.114 431.154,452.114 434.5,484.5C 430.979,486.229 427.313,487.562 423.5,488.5C 419.268,458.905 411.601,430.238 400.5,402.5C 401.6,401.395 402.267,400.062 402.5,398.5C 404.529,396.142 406.529,393.808 408.5,391.5 Z"/></g>
<g><path style="opacity:0.851" fill="#fa9399" d="M 402.5,398.5 C 402.267,400.062 401.6,401.395 400.5,402.5C 398.754,404.252 396.754,405.585 394.5,406.5C 396.833,403.5 399.5,400.833 402.5,398.5 Z"/></g>
<g><path style="opacity:1" fill="#f14f5c" d="M 400.5,402.5 C 411.601,430.238 419.268,458.905 423.5,488.5C 419.406,490.279 415.073,491.612 410.5,492.5C 407.847,464.513 400.847,437.513 389.5,411.5C 388.583,412.127 387.583,412.461 386.5,412.5C 388.878,410.122 391.545,408.122 394.5,406.5C 396.754,405.585 398.754,404.252 400.5,402.5 Z"/></g>
<g><path style="opacity:1" fill="#ffa44e" d="M 94.5,396.5 C 99.1927,400.861 103.859,405.195 108.5,409.5C 108.577,410.75 109.244,411.583 110.5,412C 79.1652,420.531 54.8319,438.364 37.5,465.5C 32.46,461.461 28.1266,456.794 24.5,451.5C 25.4959,451.414 26.3292,451.748 27,452.5C 43.6894,426.812 66.5228,408.978 95.5,399C 94.7476,398.329 94.4142,397.496 94.5,396.5 Z"/></g>
<g><path style="opacity:1" fill="#f45156" d="M 410.5,492.5 C 405.564,493.538 400.564,494.205 395.5,494.5C 396.209,493.596 397.209,493.263 398.5,493.5C 395.536,467.81 389.203,442.977 379.5,419C 379.164,417.97 378.497,417.47 377.5,417.5C 380.331,415.583 383.331,413.917 386.5,412.5C 387.583,412.461 388.583,412.127 389.5,411.5C 400.847,437.513 407.847,464.513 410.5,492.5 Z"/></g>
<g><path style="opacity:1" fill="#f75350" d="M 377.5,417.5 C 378.497,417.47 379.164,417.97 379.5,419C 389.203,442.977 395.536,467.81 398.5,493.5C 397.209,493.263 396.209,493.596 395.5,494.5C 386.528,495.347 377.528,495.68 368.5,495.5C 368.5,495.167 368.5,494.833 368.5,494.5C 369.5,494.5 370.5,494.5 371.5,494.5C 375.884,494.826 380.217,494.492 384.5,493.5C 381.116,469.295 374.616,445.962 365,423.5C 363.644,424.38 362.144,424.714 360.5,424.5C 366.01,421.991 371.676,419.658 377.5,417.5 Z"/></g>
<g><path style="opacity:1" fill="#ffb55b" d="M 108.5,409.5 C 125.101,420.646 143.435,427.146 163.5,429C 211.15,430.422 258.817,430.922 306.5,430.5C 300.69,431.49 294.69,431.823 288.5,431.5C 281.833,431.5 275.167,431.5 268.5,431.5C 261.833,431.5 255.167,431.5 248.5,431.5C 240.5,431.5 232.5,431.5 224.5,431.5C 216.16,431.334 207.827,431.5 199.5,432C 220.542,448.23 235.209,469.064 243.5,494.5C 249.128,495.495 254.794,495.829 260.5,495.5C 266.167,495.5 271.833,495.5 277.5,495.5C 283.167,495.5 288.833,495.5 294.5,495.5C 300.167,495.5 305.833,495.5 311.5,495.5C 317.167,495.5 322.833,495.5 328.5,495.5C 329.167,495.5 329.833,495.5 330.5,495.5C 283.167,496.833 235.833,496.833 188.5,495.5C 191.833,495.5 195.167,495.5 198.5,495.5C 201.5,495.5 204.5,495.5 207.5,495.5C 210.5,495.5 213.5,495.5 216.5,495.5C 219.518,495.665 222.518,495.498 225.5,495C 204.265,444.877 166.598,423.544 112.5,431C 86.6209,438.064 66.6209,452.897 52.5,475.5C 53.1925,476.518 53.8592,477.518 54.5,478.5C 47.9742,475.31 42.3076,470.976 37.5,465.5C 54.8319,438.364 79.1652,420.531 110.5,412C 109.244,411.583 108.577,410.75 108.5,409.5 Z"/></g>
<g><path style="opacity:1" fill="#fa5247" d="M 371.5,494.5 C 368.551,471.656 362.551,449.656 353.5,428.5C 351.955,427.548 350.288,427.215 348.5,427.5C 352.298,426.132 356.298,425.132 360.5,424.5C 362.144,424.714 363.644,424.38 365,423.5C 374.616,445.962 381.116,469.295 384.5,493.5C 380.217,494.492 375.884,494.826 371.5,494.5 Z"/></g>
<g><path style="opacity:1" fill="#fd5341" d="M 346.5,427.5 C 347.167,427.5 347.833,427.5 348.5,427.5C 350.288,427.215 351.955,427.548 353.5,428.5C 362.551,449.656 368.551,471.656 371.5,494.5C 370.5,494.5 369.5,494.5 368.5,494.5C 365.5,494.5 362.5,494.5 359.5,494.5C 355.495,472.147 349.162,450.48 340.5,429.5C 342.786,429.405 344.786,428.738 346.5,427.5 Z"/></g>
<g><path style="opacity:1" fill="#ffb84f" d="M 216.5,495.5 C 201.158,459.059 173.658,439.393 134,436.5C 111.593,437.298 92.0929,445.131 75.5,460C 69.2111,466.775 63.2111,473.609 57.5,480.5C 56.2905,480.068 55.2905,479.401 54.5,478.5C 53.8592,477.518 53.1925,476.518 52.5,475.5C 66.6209,452.897 86.6209,438.064 112.5,431C 166.598,423.544 204.265,444.877 225.5,495C 222.518,495.498 219.518,495.665 216.5,495.5 Z"/></g>
<g><path style="opacity:0.992" fill="#ff9f90" d="M 346.5,427.5 C 344.786,428.738 342.786,429.405 340.5,429.5C 338.833,429.5 337.167,429.5 335.5,429.5C 338.974,428.475 342.64,427.808 346.5,427.5 Z"/></g>
<g><path style="opacity:1" fill="#ff593e" d="M 332.5,429.5 C 333.5,429.5 334.5,429.5 335.5,429.5C 337.167,429.5 338.833,429.5 340.5,429.5C 349.162,450.48 355.495,472.147 359.5,494.5C 354.833,494.5 350.167,494.5 345.5,494.5C 341.801,472.704 335.468,451.704 326.5,431.5C 328.631,430.831 330.631,430.165 332.5,429.5 Z"/></g>
<g><path style="opacity:1" fill="#ffa14b" d="M 224.5,431.5 C 241.669,449.829 253.669,471.162 260.5,495.5C 254.794,495.829 249.128,495.495 243.5,494.5C 235.209,469.064 220.542,448.23 199.5,432C 207.827,431.5 216.16,431.334 224.5,431.5 Z"/></g>
<g><path style="opacity:1" fill="#ff9448" d="M 224.5,431.5 C 232.5,431.5 240.5,431.5 248.5,431.5C 262.475,450.79 272.142,472.124 277.5,495.5C 271.833,495.5 266.167,495.5 260.5,495.5C 253.669,471.162 241.669,449.829 224.5,431.5 Z"/></g>
<g><path style="opacity:1" fill="#ff8846" d="M 248.5,431.5 C 255.167,431.5 261.833,431.5 268.5,431.5C 281.017,451.21 289.684,472.543 294.5,495.5C 288.833,495.5 283.167,495.5 277.5,495.5C 272.142,472.124 262.475,450.79 248.5,431.5 Z"/></g>
<g><path style="opacity:1" fill="#ff7b44" d="M 268.5,431.5 C 275.167,431.5 281.833,431.5 288.5,431.5C 300.126,451.376 307.793,472.709 311.5,495.5C 305.833,495.5 300.167,495.5 294.5,495.5C 289.684,472.543 281.017,451.21 268.5,431.5 Z"/></g>
<g><path style="opacity:1" fill="#ff6f43" d="M 306.5,430.5 C 309.167,430.5 311.833,430.5 314.5,430.5C 312.302,431.165 309.969,431.832 307.5,432.5C 317.509,452.526 324.509,473.526 328.5,495.5C 322.833,495.5 317.167,495.5 311.5,495.5C 307.793,472.709 300.126,451.376 288.5,431.5C 294.69,431.823 300.69,431.49 306.5,430.5 Z"/></g>
<g><path style="opacity:1" fill="#ff6642" d="M 332.5,429.5 C 330.631,430.165 328.631,430.831 326.5,431.5C 335.468,451.704 341.801,472.704 345.5,494.5C 350.167,494.5 354.833,494.5 359.5,494.5C 362.5,494.5 365.5,494.5 368.5,494.5C 368.5,494.833 368.5,495.167 368.5,495.5C 355.833,495.5 343.167,495.5 330.5,495.5C 329.833,495.5 329.167,495.5 328.5,495.5C 324.509,473.526 317.509,452.526 307.5,432.5C 309.969,431.832 312.302,431.165 314.5,430.5C 320.477,429.835 326.477,429.502 332.5,429.5 Z"/></g>
<g><path style="opacity:1" fill="#ffbe50" d="M 216.5,495.5 C 213.5,495.5 210.5,495.5 207.5,495.5C 198.322,474.822 183.322,459.988 162.5,451C 121.958,438.791 89.6247,449.957 65.5,484.5C 62.5152,483.674 59.8485,482.341 57.5,480.5C 63.2111,473.609 69.2111,466.775 75.5,460C 92.0929,445.131 111.593,437.298 134,436.5C 173.658,439.393 201.158,459.059 216.5,495.5 Z"/></g>
<g><path style="opacity:1" fill="#ffc451" d="M 207.5,495.5 C 204.5,495.5 201.5,495.5 198.5,495.5C 185.137,469.379 163.637,455.379 134,453.5C 109.346,455.192 89.6792,465.859 75,485.5C 74.5304,486.577 74.6971,487.577 75.5,488.5C 71.8886,487.743 68.5553,486.41 65.5,484.5C 89.6247,449.957 121.958,438.791 162.5,451C 183.322,459.988 198.322,474.822 207.5,495.5 Z"/></g>
<g><path style="opacity:1" fill="#ffcb52" d="M 198.5,495.5 C 195.167,495.5 191.833,495.5 188.5,495.5C 171.832,470.003 148.499,460.17 118.5,466C 103.942,469.779 92.2749,477.779 83.5,490C 84.7375,490.232 85.7375,490.732 86.5,491.5C 82.521,491.258 78.8544,490.258 75.5,488.5C 74.6971,487.577 74.5304,486.577 75,485.5C 89.6792,465.859 109.346,455.192 134,453.5C 163.637,455.379 185.137,469.379 198.5,495.5 Z"/></g>
<g><path style="opacity:1" fill="#ffd154" d="M 188.5,495.5 C 184.833,495.5 181.167,495.5 177.5,495.5C 163.593,476.468 144.926,469.301 121.5,474C 110.086,477.206 100.42,483.206 92.5,492C 93.7375,492.232 94.7375,492.732 95.5,493.5C 92.2727,493.324 89.2727,492.657 86.5,491.5C 85.7375,490.732 84.7375,490.232 83.5,490C 92.2749,477.779 103.942,469.779 118.5,466C 148.499,460.17 171.832,470.003 188.5,495.5 Z"/></g>
<g><path style="opacity:1" fill="#ffdb57" d="M 177.5,495.5 C 154.498,495.667 131.498,495.5 108.5,495C 104.118,494.708 99.7847,494.208 95.5,493.5C 94.7375,492.732 93.7375,492.232 92.5,492C 100.42,483.206 110.086,477.206 121.5,474C 144.926,469.301 163.593,476.468 177.5,495.5 Z"/></g>
</svg>
