<?xml version="1.0" standalone="no"?>
<!DOCTYPE svg PUBLIC "-//W3C//DTD SVG 20010904//EN"
 "http://www.w3.org/TR/2001/REC-SVG-20010904/DTD/svg10.dtd">
<svg version="1.0" xmlns="http://www.w3.org/2000/svg"
 width="500.000000pt" height="500.000000pt" viewBox="0 0 500.000000 500.000000"
 preserveAspectRatio="xMidYMid meet">

<g transform="translate(0.000000,500.000000) scale(0.100000,-0.100000)"
fill="#000000" stroke="none">
<path d="M1129 4950 c-76 -4 -174 -15 -219 -24 -362 -74 -656 -318 -780 -649
-53 -141 -70 -232 -80 -442 -11 -207 -12 -2317 -1 -2355 5 -17 9 -21 15 -12
12 19 150 119 245 176 80 49 299 156 348 170 l21 7 5 757 c5 790 7 821 51 991
95 357 350 608 713 700 173 44 219 46 1048 46 841 0 885 -2 1067 -50 188 -49
329 -127 452 -251 132 -131 215 -289 262 -494 39 -173 46 -373 41 -1145 -3
-584 -7 -716 -20 -795 -47 -273 -130 -445 -293 -605 -97 -96 -205 -163 -339
-211 -104 -37 -293 -74 -377 -74 -36 0 -49 -3 -45 -12 102 -247 156 -421 183
-587 l7 -43 286 5 c242 4 301 8 385 27 279 60 512 215 660 439 119 179 171
343 186 593 13 207 12 2602 0 2790 -22 323 -122 552 -326 748 -168 162 -363
253 -619 291 -93 14 -2649 22 -2876 9z"/>
<path d="M1810 3980 c-320 -17 -469 -73 -611 -229 -95 -104 -148 -238 -169
-431 -14 -124 -25 -1049 -15 -1253 l7 -158 32 6 c141 26 478 20 640 -10 44 -8
81 -13 83 -12 1 2 -16 27 -38 57 -131 174 -198 436 -169 660 27 213 112 390
260 541 186 190 406 283 670 283 262 0 476 -89 660 -274 187 -186 274 -399
273 -665 -1 -252 -81 -457 -249 -634 -162 -172 -349 -264 -607 -298 l-59 -8
69 -50 c92 -67 313 -291 393 -397 l65 -87 70 -1 c121 0 294 20 383 46 123 36
196 78 280 162 113 112 166 240 194 467 17 141 17 1456 0 1610 -25 229 -76
350 -196 471 -116 115 -237 168 -446 194 -107 14 -1307 21 -1520 10z m1779
-323 c22 -15 53 -46 68 -69 25 -36 28 -51 28 -119 0 -70 -3 -82 -30 -121 -38
-55 -119 -98 -184 -98 -50 0 -135 35 -163 66 -30 34 -58 108 -58 154 0 86 60
176 140 209 14 6 55 10 91 8 53 -2 75 -8 108 -30z"/>
<path d="M2340 3079 c-191 -51 -347 -201 -413 -397 -32 -96 -31 -268 1 -365
31 -93 90 -184 166 -255 121 -113 232 -157 401 -157 121 0 178 12 270 57 157
78 271 217 314 383 118 449 -289 854 -739 734z"/>
</g>
</svg>
