<svg xmlns="http://www.w3.org/2000/svg" viewBox="337.998 78.575 48.18 120.7">
  <path d="M339.9,160.3c-4-9-1.7-22.5,7-39.9l0.1-0.2l-0.1-0.3c-4.6-10.1-7-17.5-7-21.4c0-7.8,2.9-15.4,7-18.5c0.8-0.6,1.6-1,2.4-1.2c1-0.3,2-0.3,3,0c3.1,0.9,5.9,5,7.5,8.5c2.7,5.9,1.1,19-7.2,32.8l-0.2,0.3l0.1,0.3c1.7,3.6,3.6,7.5,5.7,11.5l0.3,0.5l0.5-0.2c0.9-0.4,1.9-0.8,2.9-1.1c6.7-1.8,14.7-0.2,19.4,4c5.4,4.8,6.4,12.8,2.6,20.9c-1.5,3.3-3.5,6.2-5.9,8.5l-0.3,0.3l0.3,0.4c6.3,9.6,8.5,18.9,6.2,25.5c-1.4,4-4.4,6.8-8.5,7.9c-4,1.1-10.8-0.7-12.7-3.5l-0.1-0.1l-0.1-0.1c-1.6-1.3-2.8-3.1-3.4-5.1c-1.3-4.8,1-9.6,5.2-10.7c4.2-1.1,8.6,1.8,9.9,6.6c0.7,2.5,0.4,5.1-0.8,7.2l-0.7,1.3l1.4-0.4c2.5-0.7,4.2-2.4,5.1-4.8c1.8-5-0.2-12.6-5.4-20.7l-0.3-0.5l-0.5,0.3c-1.4,0.9-3.7,1.8-6,2.4C362.5,172,346.5,175.1,339.9,160.3z M360.8,136.9l0.3,0.6c4.6,8.6,7.5,13.7,11.3,19.5l0.4,0.6l0.7-0.8c4.8-5.1,9.5-12.3,4.6-17.9c-3.4-3.9-10-4.3-14.6-3c-0.7,0.2-1.4,0.4-2.1,0.7L360.8,136.9z M349.4,113.5l0.5,1.1l0.6-1.1c0.3-0.6,0.7-1.2,1-1.8c0.6-1,1.2-2,1.6-3c3.1-7.1,0.8-15.4-2-18.7c-1.1-1.3-2.3-1.8-3.3-1.5c-2.1,0.6-3.1,4-3,10C344.9,102.1,347.3,108.6,349.4,113.5z M344.3,158.2c3.6,6,9.3,8.2,16.5,6.2c2.5-0.7,5.1-1.9,7.7-3.4l0.5-0.3l-0.3-0.5c-3.3-5.1-6.1-9.9-11.2-19.3L357,140l-0.5,0.9c-1,1.7-2.7,7.4,0.4,14.1c-1.8-0.5-5.3-2.2-6.6-7.1c-1.7-6.3,0.5-8.5,3.3-11.4c0.2-0.2,0.5-0.5,0.7-0.8l0.3-0.3l-0.2-0.4c-1.4-2.8-2.8-5.5-4.1-8.1l-0.5-1.1l-0.5,1.1C344.5,137.4,339.6,150.4,344.3,158.2z" fill="#fff"/>
</svg>