<svg xmlns="http://www.w3.org/2000/svg" viewBox="217.753 132.6 78.29 69.62">
  <path d="M 267.9 202.2 c -7.6 -0.3 -12.8 -4.2 -11.7 -8.6 c 1.1 -4.4 8.1 -7.8 15.7 -7.4 c 3.6 0.2 6.7 1.1 8.8 2.5 l 6.1 -24.7 l -34.2 -8.4 l -7.3 29.8 c -1.1 4.4 -8.1 7.8 -15.7 7.4 c -7.6 -0.3 -12.8 -4.2 -11.7 -8.6 c 1.1 -4.4 8.1 -7.8 15.7 -7.4 c 3.6 0.2 6.7 1.1 8.8 2.5 l 10.8 -43.9 c 0.3 -1 0.9 -1.9 1.8 -2.5 c 0.3 -0.2 0.7 -0.3 1.1 -0.3 l 0 0 l 39.1 9.6 l -0.2 -0.2 c 0.7 0.4 1.2 1.2 1 2.1 l -12.4 50.4 C 282.6 199.2 275.5 202.5 267.9 202.2 z M 288.9 155.5 l 1.4 -5.6 l -34.2 -8.4 l -1.4 5.6 L 288.9 155.5 z" fill="#fff"/>
</svg>