<?xml version="1.0" standalone="no"?>
<!DOCTYPE svg PUBLIC "-//W3C//DTD SVG 20010904//EN"
 "http://www.w3.org/TR/2001/REC-SVG-20010904/DTD/svg10.dtd">
<svg version="1.0" xmlns="http://www.w3.org/2000/svg"
 width="500.000000pt" height="500.000000pt" viewBox="0 0 500.000000 500.000000"
 preserveAspectRatio="xMidYMid meet">

<g transform="translate(0.000000,500.000000) scale(0.100000,-0.100000)"
fill="#000000" stroke="none">
<path d="M2285 4270 c-174 -19 -337 -68 -549 -167 -302 -140 -516 -320 -724
-610 -117 -163 -242 -463 -277 -663 -37 -214 -30 -528 16 -715 25 -100 83
-265 116 -327 l25 -46 47 35 c75 59 235 123 303 123 16 0 15 4 -4 47 -33 76
-10 192 50 246 19 18 20 21 6 59 -8 22 -14 50 -14 62 0 16 -13 27 -49 44 -67
30 -105 71 -130 137 -55 146 7 298 150 371 42 21 51 23 45 9 -3 -9 -6 -26 -6
-38 0 -15 -13 -29 -38 -44 -21 -12 -51 -40 -68 -64 -25 -36 -29 -53 -32 -118
-3 -70 -1 -80 27 -123 33 -51 91 -88 140 -88 27 0 30 -4 36 -42 4 -24 16 -60
26 -80 25 -49 24 -63 -5 -86 -39 -30 -74 -90 -81 -137 -11 -72 33 -149 108
-187 42 -21 20 -33 -101 -52 -216 -36 -346 -109 -420 -236 -26 -44 -27 -50
-27 -205 0 -186 8 -210 83 -247 38 -18 55 -20 122 -14 l79 6 62 65 c35 36 81
78 104 93 l41 27 -141 0 c-147 0 -199 8 -192 28 5 18 125 85 182 103 52 15
597 105 650 106 17 0 59 -7 94 -17 59 -17 62 -19 45 -33 -24 -19 -231 -117
-309 -147 -278 -106 -462 -242 -542 -398 l-24 -49 55 7 56 7 0 -98 c0 -55 3
-115 6 -136 l6 -36 28 31 c100 113 170 172 259 216 114 57 119 58 223 11 478
-216 1007 -220 1473 -13 134 59 192 91 285 153 317 213 547 507 685 875 53
142 74 232 91 380 41 377 -9 668 -170 993 -177 358 -477 650 -841 819 -264
123 -426 161 -705 167 -107 3 -231 1 -275 -4z m386 -283 c30 -14 64 -34 76
-45 25 -22 73 -90 73 -104 0 -20 -75 6 -99 35 -55 65 -169 93 -265 65 -38 -12
-115 -77 -141 -119 -5 -9 -22 -20 -37 -23 -24 -6 -28 -3 -28 17 0 37 54 112
107 148 93 65 213 74 314 26z m-42 -114 l46 -28 -105 -6 c-58 -3 -124 -9 -148
-13 -36 -7 -41 -6 -36 9 4 9 27 27 53 40 65 34 131 33 190 -2z m673 -53 c96
-27 177 -136 178 -240 l0 -55 71 -17 c153 -37 250 -176 219 -315 -13 -57 -23
-75 -66 -123 l-34 -37 24 -54 c35 -79 56 -187 56 -282 l0 -84 39 -12 c50 -15
123 -94 145 -158 35 -104 14 -213 -61 -308 -90 -114 -214 -172 -346 -162 -40
3 -84 11 -99 17 -25 12 -31 8 -112 -56 -48 -38 -115 -86 -149 -107 -62 -38
-75 -54 -76 -94 -2 -52 -44 -135 -98 -193 -129 -140 -334 -178 -503 -94 -38
19 -78 45 -88 58 -16 21 -29 24 -122 30 -213 14 -326 37 -457 93 -82 34 -83
34 -125 19 -24 -8 -104 -25 -178 -36 -328 -51 -413 -75 -517 -149 -32 -22 -58
-39 -59 -38 0 1 2 28 6 60 6 52 11 63 46 93 69 59 168 102 289 123 190 33 238
36 271 15 28 -19 107 -24 219 -14 27 2 69 -7 130 -29 126 -45 219 -62 373 -67
131 -4 134 -5 157 -32 33 -39 113 -80 179 -93 144 -26 325 61 386 186 13 27
20 62 20 101 l0 61 68 37 c113 62 233 159 337 270 101 109 131 129 119 79 -10
-40 -22 -62 -61 -111 -20 -24 -32 -46 -28 -50 3 -4 46 -7 93 -7 102 0 152 21
239 100 150 134 112 357 -69 415 -21 6 -38 15 -39 18 -1 4 -2 59 -4 122 -3
125 -24 220 -67 304 l-24 48 51 52 c81 81 91 170 29 259 -42 60 -85 81 -167
84 -89 2 -105 19 -87 93 9 38 9 58 0 85 -15 45 -62 101 -104 122 -37 19 -123
21 -165 3 -25 -10 -37 -10 -61 0 -38 16 -38 25 2 46 67 35 149 43 220 24z
m-422 -83 c152 -40 262 -98 347 -185 220 -223 229 -523 25 -833 -52 -79 -61
-88 -168 -189 -83 -78 -114 -102 -219 -163 -257 -149 -471 -210 -735 -211
-277 0 -456 60 -602 201 -131 128 -187 268 -174 439 11 149 74 302 184 449
195 260 501 439 867 506 142 26 344 20 475 -14z m410 -42 c36 -19 70 -74 70
-115 l0 -32 -66 62 c-37 34 -77 66 -90 72 -13 6 -24 15 -24 20 0 14 79 9 110
-7z m-1425 -61 c-11 -8 -42 -31 -70 -51 -49 -37 -51 -37 -130 -35 -95 4 -150
-15 -215 -74 -80 -73 -106 -173 -66 -262 19 -41 19 -44 1 -80 l-18 -37 -34 70
c-31 63 -34 77 -31 140 4 86 34 152 95 212 89 85 232 124 331 90 43 -15 45
-15 90 14 47 30 83 40 47 13z m-250 -198 c-39 -35 -90 -91 -115 -124 -25 -34
-48 -61 -52 -62 -15 0 -20 73 -8 113 22 74 113 136 200 137 l44 0 -69 -64z
m1935 -51 c34 -17 60 -62 60 -100 0 -24 -71 -115 -90 -115 -4 0 -10 20 -13 45
-6 38 -26 106 -52 168 -6 14 -1 17 29 17 21 0 50 -7 66 -15z m114 -111 c19
-49 -15 -134 -64 -159 -39 -20 -57 -20 -39 1 7 9 14 22 15 29 1 8 16 34 33 59
17 24 31 54 31 65 0 25 15 28 24 5z m-128 -237 c13 17 15 17 29 -1 8 -11 15
-37 15 -58 0 -32 -3 -38 -22 -38 -12 0 -32 -10 -45 -22 l-23 -21 -1 44 c0 34
-2 39 -9 24 -13 -29 -12 -1 2 52 11 46 12 46 26 25 14 -21 15 -21 28 -5z m89
-160 c18 -48 17 -118 -2 -125 -9 -2 -13 10 -13 40 -1 24 -5 62 -9 86 -11 55 3
54 24 -1z m-175 -57 c0 -51 -100 -201 -228 -341 -59 -65 -234 -199 -305 -236
-86 -43 -74 -11 20 55 149 105 187 137 272 229 81 87 173 213 207 285 18 38
34 42 34 8z m-2141 -250 c10 -27 16 -50 13 -50 -20 0 -73 43 -87 69 -25 50
-18 97 24 145 15 17 16 14 23 -48 5 -36 16 -88 27 -116z m2251 110 c28 -15 70
-92 70 -129 0 -65 -53 -124 -122 -138 l-33 -6 20 23 20 23 -24 -13 c-19 -10
-22 -10 -15 2 87 140 100 184 35 119 -22 -22 -53 -47 -68 -55 -33 -17 -103
-31 -103 -21 0 3 19 32 43 63 23 31 55 76 70 100 22 34 33 42 58 42 17 0 39
-5 49 -10z m141 -209 c9 -31 8 -44 -5 -72 -14 -30 -35 -44 -154 -102 -75 -36
-147 -69 -159 -72 -38 -10 -81 21 -110 79 -31 64 -27 90 14 79 36 -10 116 -9
172 1 l45 9 -40 -35 c-21 -19 -56 -45 -76 -57 -21 -12 -38 -25 -38 -28 0 -3
18 -3 41 1 96 15 212 102 254 192 14 30 30 52 35 49 5 -3 15 -23 21 -44z m129
-53 c23 -39 26 -104 6 -151 -17 -43 -85 -101 -135 -115 -56 -17 -66 -15 -40 9
19 16 20 19 6 15 -11 -3 -31 -8 -45 -11 -25 -5 -25 -5 -8 7 119 83 177 155
184 230 2 26 6 48 8 48 3 0 13 -15 24 -32z m-2386 -108 c54 -74 59 -105 9 -59
-26 25 -55 75 -68 119 -10 32 -8 30 59 -60z m51 -154 c31 -19 88 -43 126 -53
38 -9 69 -21 69 -26 0 -4 -19 -17 -42 -27 -122 -56 -267 15 -228 111 7 16 14
29 15 29 1 0 28 -15 60 -34z m1537 -99 c10 -33 9 -44 -6 -72 -19 -35 -84 -87
-131 -105 -26 -10 -27 -9 -14 7 13 15 12 16 -6 9 -11 -4 15 26 58 66 42 40 77
79 77 86 0 7 -14 -3 -31 -22 -28 -33 -119 -92 -119 -78 0 4 7 16 15 26 10 13
15 43 15 81 0 60 1 61 38 83 l37 22 28 -33 c15 -17 33 -49 39 -70z m-252 47
c0 -43 -73 -109 -145 -129 -74 -22 -159 -15 -189 14 -16 16 -17 21 -5 25 153
46 223 70 264 90 65 32 75 32 75 0z m-660 -36 c74 0 149 2 166 6 25 6 33 3 38
-10 4 -9 4 -19 2 -21 -3 -3 -42 -9 -88 -15 -129 -15 -363 8 -393 39 -26 26 -8
30 67 16 40 -7 134 -14 208 -15z m-573 -93 c106 0 111 -1 101 -19 -9 -16 -8
-18 8 -12 13 4 10 -2 -9 -19 -52 -46 -140 -55 -209 -19 -32 16 -78 74 -78 97
0 14 5 13 38 -6 32 -19 51 -22 149 -22z m1253 10 c0 -8 5 -15 10 -15 33 0 -27
-73 -83 -101 -47 -25 -132 -35 -167 -21 l-25 11 25 1 c14 0 32 5 40 10 11 7 7
10 -17 10 -46 0 -41 16 8 24 40 6 136 50 174 80 25 20 35 20 35 1z m-906 -58
c9 -23 16 -51 16 -61 0 -81 -175 -164 -290 -138 -34 8 -33 9 35 21 73 13 157
45 175 66 5 6 -13 1 -41 -13 -37 -19 -68 -26 -113 -26 -64 0 -116 9 -116 22 0
11 70 33 135 41 112 15 130 29 68 52 l-37 15 59 31 c33 18 67 32 76 33 10 0
23 -16 33 -43z m488 -26 c9 -18 29 -47 45 -64 l28 -29 -51 4 c-29 3 -70 14
-93 26 -44 23 -47 22 -31 -9 19 -35 64 -49 157 -50 58 0 81 -3 68 -9 l-20 -9
20 -1 c16 0 17 -2 5 -9 -29 -16 -99 -21 -148 -10 -71 15 -94 43 -98 120 -2 34
-1 65 2 71 3 5 27 8 52 6 42 -3 49 -7 64 -37z m612 -130 c-1 -99 -56 -171
-171 -227 -49 -24 -71 -28 -143 -28 -128 -1 -217 45 -240 122 -10 38 1 42 24
7 29 -45 101 -78 180 -83 91 -6 143 9 205 58 58 46 96 106 113 178 16 67 33
52 32 -27z m-104 23 c0 -66 -71 -137 -154 -154 -66 -14 -119 -5 -154 25 l-25
22 54 5 c64 7 145 43 214 97 28 21 53 36 58 34 4 -2 7 -15 7 -29z m-582 -349
c8 -7 -47 -67 -120 -132 -69 -61 -198 -136 -288 -166 -293 -100 -462 -173
-532 -228 -20 -16 -39 -29 -42 -29 -3 0 -6 31 -6 68 0 58 3 72 23 89 37 34
107 74 171 98 350 128 537 211 631 279 47 34 54 36 104 31 30 -3 57 -8 59 -10z"/>
<path d="M2355 3664 c-485 -104 -881 -472 -919 -854 -16 -160 62 -339 188
-436 68 -52 200 -111 291 -130 108 -22 312 -23 429 0 544 105 966 496 968 896
1 250 -150 432 -427 515 -78 24 -112 28 -250 31 -143 3 -173 1 -280 -22z m159
-86 c9 -34 8 -38 -13 -38 -22 0 -36 40 -18 52 19 12 24 10 31 -14z m79 0 c4
-12 1 -26 -5 -29 -17 -11 -25 -3 -30 26 -7 33 27 35 35 3z m69 -3 c9 -44 -23
-41 -34 3 -5 17 -2 22 12 22 11 0 19 -9 22 -25z m78 -5 c0 -37 -17 -39 -30 -4
-13 34 -13 34 10 34 16 0 20 -7 20 -30z m50 -5 c0 -16 -6 -25 -15 -25 -8 0
-15 4 -15 9 0 5 -3 16 -6 25 -4 12 0 16 15 16 16 0 21 -6 21 -25z m-356 -1
c10 -26 7 -34 -14 -34 -11 0 -20 4 -20 9 0 5 -3 16 -6 25 -4 11 0 16 14 16 11
0 23 -7 26 -16z m434 -17 c3 -23 0 -28 -15 -25 -11 2 -19 14 -21 31 -3 23 0
28 15 25 11 -2 19 -14 21 -31z m-499 1 c6 -16 4 -25 -5 -31 -20 -12 -34 0 -34
29 0 31 28 32 39 2z m581 -30 c0 -30 -25 -15 -28 17 -3 25 -2 27 12 16 9 -8
16 -22 16 -33z m-646 16 c9 -24 7 -34 -8 -34 -13 0 -26 20 -26 41 0 15 27 10
34 -7z m-61 -24 c7 -26 -28 -48 -37 -24 -11 28 -6 44 13 44 10 0 21 -9 24 -20z
m761 14 c17 -6 23 -54 7 -54 -15 0 -41 30 -41 46 0 15 9 17 34 8z m-824 -23
c0 -5 3 -16 6 -24 3 -8 -2 -17 -11 -21 -11 -4 -19 2 -24 17 -5 12 -7 25 -4 30
6 10 33 9 33 -2z m-60 -46 c0 -29 -34 -36 -44 -9 -8 21 1 34 25 34 14 0 19 -7
19 -25z m968 -3 c3 -16 -1 -20 -12 -16 -19 7 -22 48 -3 42 6 -3 13 -14 15 -26z
m-1028 -37 c-13 -16 -15 -15 -27 1 -10 13 -10 21 -1 31 10 12 14 12 26 -1 13
-13 13 -17 2 -31z m1106 -7 c12 -12 30 -36 40 -53 16 -25 10 -22 -38 19 -32
28 -58 56 -58 63 0 18 27 4 56 -29z m-301 8 c164 -45 313 -158 348 -265 21
-65 21 -100 2 -174 -20 -76 -46 -127 -111 -212 -73 -96 -114 -138 -219 -215
-216 -161 -488 -253 -750 -254 -159 -1 -256 19 -373 76 -235 115 -265 320 -84
585 156 230 483 426 787 473 89 13 329 5 400 -14z m-871 -12 c7 -19 -20 -54
-41 -54 -25 0 -28 32 -4 52 28 22 37 23 45 2z m-91 -64 c3 -10 -1 -24 -8 -30
-10 -9 -16 -6 -25 11 -10 17 -9 23 1 30 21 13 26 11 32 -11z m-45 -35 c-4 -31
-17 -36 -32 -12 -8 14 -8 20 4 27 24 16 32 12 28 -15z m-44 -31 c9 -24 -62
-93 -75 -73 -13 21 -5 34 20 33 15 0 20 4 16 14 -5 15 11 42 25 42 4 0 11 -7
14 -16z m-84 -93 c0 -10 -6 -24 -14 -30 -11 -10 -16 -8 -21 8 -3 12 -3 25 0
31 11 17 35 11 35 -9z m-45 -60 c-3 -12 -11 -21 -16 -21 -16 0 -22 29 -9 46
17 20 34 3 25 -25z m-44 -57 c-9 -20 -15 -24 -23 -16 -9 9 -8 18 1 38 9 20 15
24 23 16 9 -9 8 -18 -1 -38z m-31 -34 c0 -10 -6 -23 -13 -27 -7 -4 -25 -39
-41 -76 -16 -37 -30 -66 -33 -64 -6 7 39 137 48 137 5 0 9 8 9 18 0 10 3 22 7
25 12 13 23 7 23 -13z"/>
</g>
</svg>
