<?xml version="1.0" standalone="no"?>
<!DOCTYPE svg PUBLIC "-//W3C//DTD SVG 20010904//EN"
 "http://www.w3.org/TR/2001/REC-SVG-20010904/DTD/svg10.dtd">
<svg version="1.0" xmlns="http://www.w3.org/2000/svg"
 width="500.000000pt" height="500.000000pt" viewBox="0 0 500.000000 500.000000"
 preserveAspectRatio="xMidYMid meet">

<g transform="translate(0.000000,500.000000) scale(0.100000,-0.100000)"
fill="#000000" stroke="none">
<path d="M3264 4217 c-16 -15 -49 -41 -74 -59 -43 -32 -48 -33 -110 -27 -107
11 -283 10 -390 -2 l-100 -11 -37 32 c-33 29 -41 32 -85 28 -56 -6 -92 -33
-108 -83 -10 -29 -20 -35 -113 -69 -114 -42 -370 -164 -434 -207 -40 -28 -42
-28 -83 -14 -91 32 -234 12 -290 -39 -14 -13 -45 -32 -70 -43 -100 -44 -150
-113 -150 -210 0 -60 10 -82 57 -134 l23 -25 -66 -85 c-68 -86 -127 -199 -165
-318 l-22 -69 -50 -6 c-103 -12 -198 -80 -248 -178 -24 -47 -37 -160 -25 -223
9 -47 72 -110 124 -125 36 -9 40 -14 46 -50 9 -56 50 -98 109 -113 47 -12 49
-14 69 -72 11 -32 32 -87 48 -122 28 -62 44 -124 55 -215 7 -57 26 -71 93 -67
52 3 67 -10 33 -27 -35 -18 -36 -24 -2 -14 18 5 31 5 31 0 0 -5 7 -7 15 -4 18
7 20 -7 3 -24 -15 -15 -8 -15 27 -2 l26 10 -21 -30 c-24 -33 -17 -39 13 -12
16 13 19 14 15 2 -9 -30 -83 -70 -157 -86 -91 -18 -165 -11 -229 23 -34 18
-42 20 -31 7 28 -34 100 -57 174 -57 83 1 150 22 216 69 54 38 64 37 22 -2
-25 -22 -25 -24 -5 -14 45 22 46 3 1 -23 -64 -38 -200 -71 -260 -64 -70 8
-159 48 -183 80 -30 41 -31 188 -1 232 11 16 14 26 8 22 -29 -18 -65 -99 -70
-156 -5 -52 -2 -66 20 -104 29 -50 54 -68 117 -90 37 -12 46 -20 54 -51 19
-63 60 -104 123 -122 102 -30 224 1 303 77 l36 34 36 -18 c20 -10 76 -27 125
-39 90 -21 173 -56 185 -80 4 -7 10 -26 13 -42 8 -39 69 -94 119 -107 104 -28
262 15 330 91 32 35 38 38 112 45 111 10 266 42 349 71 111 40 109 40 101 18
-55 -141 -80 -343 -57 -454 25 -121 107 -239 181 -261 32 -10 49 -8 111 11
104 31 126 45 151 93 34 65 30 186 -11 352 -26 105 -70 333 -71 368 0 4 24
-10 53 -31 28 -21 77 -53 107 -70 150 -88 222 -142 369 -277 135 -124 168
-160 213 -233 42 -69 54 -81 56 -63 7 46 -46 127 -156 237 -59 59 -129 124
-157 145 -131 101 -180 143 -177 151 1 5 -2 7 -7 3 -14 -8 -108 52 -108 69 0
8 7 12 16 9 11 -3 10 0 -3 11 -11 9 -15 16 -9 16 7 0 15 -4 18 -10 3 -5 11
-10 17 -10 6 0 5 7 -3 17 -13 15 -11 15 18 -1 42 -21 83 -37 83 -31 0 3 -26
18 -57 34 -75 39 -63 39 19 1 63 -30 94 -38 84 -21 -15 23 27 15 104 -20 81
-38 94 -48 271 -228 109 -110 201 -212 220 -245 29 -48 49 -69 49 -51 0 12
-51 102 -75 130 l-24 31 82 -1 82 0 22 85 c13 51 22 117 22 166 1 79 0 83 -40
143 -69 104 -193 189 -319 219 -25 6 -139 23 -255 37 -115 15 -216 30 -223 34
-9 5 7 21 50 51 74 52 213 184 269 256 l39 51 75 -5 c104 -6 176 21 260 99 79
75 104 149 74 226 -8 20 -7 49 1 104 20 128 -18 203 -127 250 -38 16 -43 22
-43 51 0 48 8 54 77 61 75 6 148 43 203 103 53 58 67 108 47 167 -15 44 -14
46 14 102 30 59 37 122 22 196 -10 49 -86 121 -158 148 -117 44 -280 36 -373
-19 -24 -14 -34 -16 -36 -7 -28 97 -83 210 -143 295 l-44 62 22 32 c14 19 24
51 27 84 4 43 0 61 -24 105 -51 93 -153 141 -299 139 -33 0 -81 2 -106 6 -40
5 -50 3 -75 -19z m98 -17 c42 -12 58 -34 58 -79 0 -21 -5 -31 -15 -31 -8 0
-15 5 -15 10 0 6 -11 5 -27 -3 -35 -18 -53 -12 -53 18 0 13 -5 36 -10 50 -17
45 -3 53 62 35z m183 -4 c85 -22 141 -61 171 -118 26 -49 12 -122 -30 -157
-29 -24 -38 -1 -11 31 14 16 25 35 25 41 0 7 -9 -3 -20 -20 -21 -35 -47 -46
-35 -15 15 38 15 46 0 20 -17 -30 -31 -38 -21 -13 3 8 0 14 -7 12 -7 -1 -10 5
-8 13 14 56 -8 117 -56 161 -49 44 -71 56 -42 24 38 -42 49 -68 49 -111 l0
-38 -30 29 c-16 16 -30 23 -30 17 0 -7 -5 -12 -11 -12 -5 0 -7 6 -3 13 4 6 -2
3 -14 -7 l-22 -19 -1 61 c-1 34 -2 68 -3 75 -1 10 18 21 44 26 3 0 28 -5 55
-13z m-276 -58 c6 -17 10 -33 8 -34 -1 -2 -22 3 -46 10 l-44 12 29 22 c38 28
40 28 53 -10z m-768 2 c37 -20 21 -38 -48 -54 -37 -8 -69 -14 -71 -12 -1 2 2
15 9 29 18 40 70 58 110 37z m547 -41 c378 -42 609 -165 745 -396 72 -123 92
-211 92 -408 0 -142 -3 -172 -27 -263 -60 -230 -204 -448 -465 -703 -206 -202
-387 -312 -718 -434 -115 -43 -218 -69 -375 -95 -155 -25 -176 -25 -207 0 -35
27 -50 25 -18 -2 26 -23 44 -77 37 -110 -8 -39 -111 -32 -119 7 -15 69 -15 83
6 104 12 12 16 21 11 21 -6 0 -22 -12 -36 -26 -24 -26 -26 -27 -114 -21 -190
14 -378 73 -503 158 l-72 49 -5 -53 c-5 -48 -7 -52 -30 -51 -14 1 -33 4 -43 9
-13 5 -16 4 -11 -9 3 -9 9 -14 13 -13 3 2 17 -8 31 -21 14 -14 19 -22 11 -17
-10 6 -9 2 2 -16 9 -13 17 -35 19 -49 3 -22 -1 -25 -29 -28 -42 -4 -53 18 -60
117 -9 136 -9 142 21 167 l26 23 -33 38 c-127 142 -192 416 -154 638 56 319
174 522 473 817 157 154 308 261 506 358 355 173 706 245 1026 209z m-1328
-322 c24 -9 24 -10 5 -17 -11 -4 -47 -15 -80 -25 -100 -28 -145 -74 -160 -160
-5 -29 -19 -51 -48 -78 l-41 -38 -13 23 c-44 80 17 236 111 285 57 30 164 35
226 10z m-330 -72 c0 -3 -7 -16 -15 -29 -9 -13 -20 -50 -26 -82 -8 -48 -7 -68
5 -104 15 -45 11 -65 -19 -90 -13 -11 -19 -10 -36 6 -39 35 -51 73 -47 140 4
69 15 86 82 135 37 28 56 35 56 24z m296 -3 c-3 -5 -24 -22 -48 -38 -24 -15
-56 -39 -71 -51 -33 -27 -47 -29 -47 -7 0 24 61 73 110 89 54 16 63 18 56 7z
m2656 -214 c76 -49 103 -101 93 -172 -4 -28 -8 -61 -8 -73 -1 -12 -6 -25 -10
-29 -4 -5 -5 0 -1 11 4 11 3 17 -1 12 -5 -4 -9 -17 -10 -30 -1 -12 -8 -22 -15
-22 -7 0 -15 -6 -18 -14 -3 -10 0 -11 9 -5 15 9 -37 -55 -82 -99 -32 -32 -115
-67 -157 -66 -18 0 -10 5 28 15 63 17 109 46 165 105 38 40 37 40 -23 -10 -35
-28 -79 -58 -98 -66 -37 -15 -134 -31 -134 -22 0 3 29 15 64 27 180 60 303
216 256 325 -6 14 -9 4 -9 -37 -1 -31 -5 -68 -11 -82 -22 -60 -148 -166 -194
-166 -13 0 -4 8 24 21 50 22 124 89 146 131 8 15 14 44 13 65 -1 42 -4 37 -14
-20 -12 -73 -112 -158 -200 -171 -22 -3 -34 -3 -27 0 19 9 14 27 -5 20 -11 -4
-8 2 7 13 l25 20 -25 -6 c-24 -5 -25 -5 -5 11 19 15 19 16 -8 6 -40 -14 -45
-12 -18 6 18 13 21 22 16 43 -4 14 -8 61 -9 104 -1 63 1 77 14 78 8 1 4 5 -10
9 l-25 8 28 1 c15 1 27 5 27 9 0 4 -17 7 -37 5 -35 -2 -34 -1 12 11 l50 14
-55 -5 c-69 -7 -62 4 11 16 l54 9 -45 2 -45 3 40 8 c33 6 29 7 -25 5 l-65 -3
40 13 c24 8 75 12 125 11 79 -2 89 -5 142 -39z m-265 -4 c-3 -3 -12 -4 -19 -1
-8 3 -5 6 6 6 11 1 17 -2 13 -5z m-29 -70 c14 -10 22 -26 22 -44 0 -32 -6 -37
-51 -50 -26 -8 -30 -7 -25 7 4 9 4 24 1 34 -6 17 -8 17 -31 -3 -24 -22 -34
-45 -12 -32 6 4 8 3 5 -4 -14 -21 -42 -6 -45 25 -2 24 4 36 28 57 36 29 75 33
108 10z m-68 -91 c-11 -17 -11 -17 -6 0 3 10 6 24 7 30 0 9 2 9 5 0 3 -7 0
-20 -6 -30z m256 -412 c19 -2 11 -33 -10 -41 -35 -13 -113 -22 -97 -12 10 7 7
12 -15 19 -28 10 -27 10 24 17 28 5 52 12 52 16 0 5 8 7 18 5 9 -2 22 -4 28
-4z m-3200 -68 c-2 -10 -7 -32 -11 -49 -5 -27 -9 -30 -36 -26 -105 15 -184
-121 -111 -191 16 -15 31 -25 33 -22 3 3 16 -7 30 -22 13 -14 17 -23 9 -19 -8
4 -6 0 4 -8 31 -25 29 -47 -2 -41 -26 6 -26 5 3 -9 30 -14 30 -14 5 -16 -24
-2 -24 -3 5 -11 23 -6 19 -7 -19 -4 -27 3 -66 14 -85 25 l-36 21 28 -26 c15
-14 46 -28 67 -31 22 -4 37 -10 35 -14 -3 -5 4 -6 15 -3 11 3 20 0 20 -6 0
-27 -141 -3 -177 30 -125 118 -61 335 122 413 73 31 109 34 101 9z m-23 -147
c-2 -22 -5 -41 -8 -44 -3 -3 -24 -6 -47 -6 -43 -1 -65 -17 -52 -37 4 -7 1 -10
-6 -7 -40 13 -36 74 7 114 21 20 36 24 67 22 41 -3 41 -3 39 -42z m2796 19
c28 -14 85 -85 115 -143 21 -40 21 -58 0 -38 -18 18 -24 19 -43 7 -11 -7 -12
-17 -3 -51 13 -53 1 -41 -22 22 -21 58 -75 108 -116 108 -16 0 -31 4 -34 9 -8
12 11 61 31 83 20 22 35 22 72 3z m336 -45 c68 -34 95 -77 95 -149 0 -68 -9
-103 -23 -94 -6 4 -8 0 -4 -10 4 -10 2 -16 -5 -14 -6 1 -13 -4 -16 -12 -3 -8
0 -11 7 -7 8 5 8 0 -1 -18 -6 -14 -16 -26 -22 -26 -6 0 -5 5 2 12 7 7 12 16
12 21 0 5 -18 -7 -40 -26 -63 -58 -111 -85 -178 -102 -57 -15 -67 -15 -116 -1
-29 9 -59 23 -66 31 -11 13 -8 13 30 0 55 -19 123 -19 191 1 42 13 67 29 116
78 52 52 62 68 68 108 4 25 4 60 0 78 -14 65 -97 131 -188 150 -38 8 -36 9 23
7 46 -2 80 -10 115 -27z m-89 -5 c42 -17 94 -59 111 -89 16 -28 16 -109 -1
-149 -15 -38 -94 -113 -134 -128 -86 -33 -172 -30 -217 6 -19 15 -16 16 40 11
l60 -6 -50 17 c-49 17 -49 18 -20 23 29 6 30 6 6 14 -18 6 -21 10 -10 17 11 7
11 9 1 9 -7 0 -11 4 -8 9 3 5 -2 12 -12 16 -29 12 18 24 51 12 15 -5 43 -7 62
-5 18 2 32 1 30 -2 -2 -4 5 -14 16 -24 19 -16 21 -16 50 15 35 37 39 85 9 119
l-20 23 -1 -24 c-1 -17 -3 -19 -6 -6 -2 9 -8 15 -13 12 -4 -3 -6 5 -4 17 2 13
1 17 -2 10 -4 -9 -14 -3 -31 20 -53 71 -53 71 20 66 51 -3 72 -9 101 -31 113
-87 79 -217 -76 -287 -50 -23 -34 -27 17 -6 95 40 152 117 140 192 -11 75 -73
129 -175 150 l-55 12 43 1 c23 1 59 -6 78 -14z m105 -348 c-6 -8 -7 -17 -3
-21 4 -4 0 -6 -8 -4 -8 2 -14 -2 -13 -8 1 -7 -22 -25 -52 -40 -29 -16 -52 -31
-50 -35 3 -3 -8 -4 -23 -2 -22 4 -24 2 -12 -7 12 -8 7 -10 -20 -5 -19 3 -51 1
-70 -3 -44 -10 -143 26 -180 65 -14 15 -16 20 -6 12 15 -11 20 -11 23 -2 3 9
19 5 51 -15 40 -23 58 -27 117 -26 78 0 175 36 216 80 23 25 50 34 30 11z
m-646 -161 c0 -25 3 -32 13 -28 11 4 10 -3 -3 -29 -17 -33 -17 -34 1 -18 39
33 48 31 16 -3 l-33 -35 25 2 c22 3 24 0 16 -14 -5 -10 -34 -39 -65 -65 -30
-26 -60 -57 -67 -69 l-11 -22 24 20 c13 11 39 33 58 50 l34 30 -18 -28 c-10
-15 -43 -51 -74 -78 l-56 -51 70 48 c39 26 77 52 85 58 20 14 -13 -18 -71 -67
-33 -29 -24 -25 41 19 103 70 88 47 -24 -38 -45 -34 -80 -64 -79 -67 1 -3 -10
-6 -23 -6 -28 0 -27 0 -14 26 13 24 7 24 -16 2 -17 -17 -18 -17 -11 0 8 22 -1
22 -27 0 -12 -10 -4 1 17 24 28 29 35 43 26 48 -7 5 -10 4 -5 -3 3 -6 -8 -21
-26 -33 -18 -12 -27 -16 -20 -9 19 22 14 35 -7 16 -12 -11 -21 -14 -26 -7 -3
6 -3 11 2 11 4 0 19 9 32 19 22 17 22 18 2 16 -11 -1 -24 -4 -27 -8 -13 -13
-24 -7 -24 14 0 12 34 56 83 108 45 48 104 113 130 144 27 32 49 57 51 57 1 0
2 -15 1 -34z m555 -1 c0 -10 -52 -25 -63 -18 -7 4 -2 10 13 14 32 9 50 10 50
4z m55 -15 c-10 -11 -41 -29 -69 -40 -43 -17 -45 -19 -16 -15 26 5 31 4 20 -4
-26 -19 -141 -13 -185 9 -22 11 -31 17 -20 13 11 -5 54 -8 95 -8 65 0 82 5
130 32 67 38 67 38 45 13z m-753 -57 c-35 -45 -61 -68 -84 -76 -15 -5 -16 -3
-6 11 12 19 105 102 114 102 3 0 -8 -17 -24 -37z m217 -199 c-13 -14 -55 -44
-92 -66 -37 -22 -65 -43 -63 -45 6 -7 85 31 133 64 23 16 32 19 23 8 -19 -23
-73 -57 -134 -83 -31 -14 -44 -17 -37 -8 9 11 9 15 0 18 -6 2 33 33 87 70 115
76 115 76 83 42z m-379 -16 c0 -9 4 -8 10 2 8 12 10 11 10 -6 0 -11 11 -58 25
-104 30 -100 31 -117 4 -70 -11 19 -18 28 -15 19 2 -10 10 -35 17 -57 14 -47
4 -94 -12 -54 -5 13 -6 29 -2 34 3 7 1 8 -5 4 -7 -4 -12 -1 -12 6 0 9 -3 9
-10 -2 -13 -20 -12 -39 1 -20 8 11 9 6 5 -20 -5 -26 -4 -30 3 -15 12 26 13 -2
1 -30 -6 -14 -9 -15 -10 -5 0 8 -7 29 -15 45 -15 30 -15 24 0 -37 6 -22 5 -22
-10 2 l-16 25 5 -30 6 -30 -20 35 c-10 19 -19 28 -20 20 0 -13 -1 -13 -11 0
-8 12 -9 10 -5 -7 15 -57 15 -66 0 -34 -19 43 -29 34 -15 -16 11 -39 14 -80 4
-55 -4 10 -9 9 -20 -5 -13 -16 -14 -16 -9 -1 3 12 1 15 -9 11 -8 -3 -12 -9 -9
-14 3 -5 0 -9 -5 -9 -6 0 -11 6 -11 13 0 8 -3 8 -9 -2 -5 -8 -16 -11 -25 -8
-9 4 -16 2 -16 -3 0 -19 -25 -4 -43 25 -17 28 -18 28 -12 5 18 -82 18 -77 1
-56 -8 10 -31 59 -51 110 -20 50 -48 111 -63 136 l-26 45 30 -19 c29 -19 29
-19 12 0 -16 19 -15 21 30 46 43 24 50 25 79 13 17 -7 41 -23 53 -35 20 -20
21 -20 16 -3 -5 17 -1 19 31 18 29 -2 40 3 48 19 6 12 19 20 28 20 9 -1 17 2
17 8 0 5 4 6 10 3 6 -4 7 1 3 11 -4 11 -2 15 4 11 6 -4 8 3 5 18 -2 14 -2 31
2 40 7 18 26 20 26 3z m-620 -42 c0 -7 -180 -48 -193 -43 -6 2 24 13 68 24 76
20 125 27 125 19z m37 -27 c-40 -21 -218 -62 -246 -57 -9 2 31 14 89 27 58 13
121 30 140 37 52 19 60 16 17 -7z m933 -4 c0 -2 -10 -9 -22 -15 -22 -11 -22
-10 -4 4 21 17 26 19 26 11z m-871 -9 c-23 -23 -292 -96 -305 -83 -3 2 27 12
66 22 38 9 103 28 143 41 67 21 106 30 96 20z m-14 -42 c-78 -38 -148 -60
-215 -68 -34 -5 -22 1 45 23 50 15 119 40 155 54 91 36 98 32 15 -9z m835 21
c0 -2 -18 -14 -40 -25 -22 -11 -40 -18 -40 -15 0 2 17 13 38 24 42 23 42 23
42 16z m-820 -40 c-25 -13 -40 -24 -34 -25 16 0 107 32 124 44 13 10 13 9 1
-6 -16 -21 -9 -23 22 -7 19 10 18 7 -6 -18 -15 -16 -54 -42 -87 -58 -33 -16
-59 -30 -57 -31 1 -2 20 2 42 7 45 11 105 19 105 14 0 -2 -19 -16 -42 -30 -45
-28 -39 -28 25 -1 20 9 37 13 37 9 0 -5 -21 -16 -46 -27 -25 -10 -43 -21 -40
-24 3 -3 24 3 46 13 22 10 43 16 46 13 3 -3 -15 -14 -41 -23 -58 -23 -53 -29
8 -10 57 17 71 3 19 -19 -26 -12 -29 -15 -10 -11 14 3 33 7 41 11 23 8 31 -28
10 -44 -17 -13 -16 -13 6 -7 20 6 23 4 18 -9 -4 -10 -3 -15 2 -12 14 9 21 -20
8 -34 -9 -10 -7 -11 11 -5 34 10 26 -10 -10 -27 -32 -14 -30 -14 17 -2 22 5
42 -17 30 -36 -7 -11 -151 -57 -200 -64 l-40 -6 35 15 c23 10 27 14 10 10 -14
-3 -50 -7 -80 -10 l-55 -5 67 18 c72 20 106 39 49 28 -19 -3 -60 -8 -90 -11
-31 -2 -45 -2 -31 1 121 24 223 52 194 53 -7 1 -49 -6 -94 -15 -45 -8 -89 -14
-98 -12 -10 2 20 11 66 21 45 9 90 21 100 27 15 10 15 10 -3 6 -38 -9 -187
-27 -191 -23 -3 3 24 10 59 17 94 17 106 31 22 25 l-70 -4 50 13 c85 22 84 26
-5 21 l-85 -5 58 15 c32 8 66 20 75 26 17 10 12 10 -108 -6 l-35 -5 30 11 c17
5 49 17 73 26 54 19 49 27 -9 14 -73 -16 -126 -22 -109 -11 8 5 25 10 38 10
12 0 22 4 22 9 0 5 -10 12 -22 15 -20 6 -17 10 32 36 30 16 53 29 50 30 -3 0
-37 -7 -75 -15 -39 -8 -88 -14 -110 -14 -33 1 -27 4 40 19 l80 18 -55 2 -55 1
50 14 c28 7 73 24 100 37 74 36 99 47 110 47 6 0 -10 -11 -35 -24z m-806 -92
l-18 -28 33 28 c39 33 47 33 62 6 8 -16 8 -24 -1 -33 -8 -8 -10 -7 -5 7 10 24
-2 21 -16 -4 -9 -17 -8 -20 2 -14 9 6 10 3 5 -10 -6 -18 -6 -18 15 1 21 17 22
17 16 1 -4 -10 -3 -16 2 -12 5 3 16 -3 23 -13 7 -10 24 -25 38 -32 24 -13 25
-12 8 7 -16 17 -48 94 -48 114 0 5 9 0 20 -11 11 -11 26 -20 34 -20 8 0 18 -4
21 -10 4 -6 -1 -7 -12 -4 -16 5 -16 4 -3 -8 15 -13 20 -28 23 -60 1 -10 13
-19 30 -22 19 -4 26 -10 21 -18 -4 -7 -4 -10 1 -6 4 4 14 3 21 -3 11 -9 22 -3
49 24 19 19 35 34 35 32 0 -2 3 -12 6 -22 4 -13 3 -14 -4 -5 -7 11 -10 11 -15
-3 -4 -9 -3 -13 3 -10 14 9 12 -8 -2 -25 -7 -8 -3 -6 9 4 12 10 25 27 28 37 4
11 12 16 21 12 9 -3 14 2 14 17 0 12 4 19 11 14 10 -6 9 -15 -7 -79 -4 -15 -1
-14 10 5 9 14 16 45 16 70 l1 45 19 -24 c55 -65 -2 -171 -124 -233 -117 -60
-238 -69 -353 -26 -76 28 -103 64 -104 141 -1 61 -1 61 -14 32 -8 -16 -14 -23
-15 -14 0 9 -10 21 -22 28 -22 11 -22 11 5 6 42 -8 32 12 -15 29 l-43 15 56
-5 c52 -5 57 -4 73 20 15 23 91 86 104 86 2 0 -4 -12 -14 -27z m1692 8 c60
-11 145 -25 189 -31 139 -20 279 -51 320 -72 41 -21 120 -80 143 -108 7 -8 22
-28 34 -45 l22 -29 -26 19 c-14 11 -24 23 -22 27 2 4 -1 10 -7 14 -8 5 -9 3
-4 -6 6 -10 4 -12 -9 -7 -14 5 -15 3 -6 -13 5 -10 15 -22 22 -26 7 -5 8 -3 3
7 -7 12 -6 12 7 1 13 -11 16 -23 9 -50 -1 -2 -6 0 -11 3 -8 5 -7 12 2 23 11
15 11 15 -3 5 -9 -7 -20 -9 -24 -5 -5 4 -6 0 -2 -9 3 -9 1 -21 -4 -26 -6 -6
-4 -10 5 -10 8 0 13 5 10 11 -3 6 8 -4 25 -23 16 -18 27 -40 24 -47 -4 -12 -7
-12 -17 2 -11 14 -13 14 -25 1 -8 -11 -9 -17 -1 -22 8 -5 8 -10 0 -20 -9 -10
-7 -21 7 -42 12 -18 2 -11 -28 18 -117 117 -348 237 -686 354 -51 18 -90 35
-87 38 3 3 -11 11 -32 17 l-37 13 24 13 c13 7 18 13 11 14 -10 0 -10 3 0 15
17 19 45 19 174 -4z m-1833 -22 c54 -11 55 -12 45 -35 -10 -21 -16 -23 -47
-18 -20 4 -52 13 -71 20 -34 12 -34 12 20 7 58 -6 61 4 7 24 -42 15 -24 16 46
2z m1414 -71 c-3 -8 -6 -5 -6 6 -1 11 2 17 5 13 3 -3 4 -12 1 -19z m-1617
-108 c0 -5 -14 -25 -31 -45 -30 -34 -77 -54 -164 -70 l-30 -5 28 11 c15 6 25
15 22 20 -4 5 1 6 9 3 9 -3 32 3 52 15 19 12 39 19 44 16 5 -3 12 0 16 6 5 8
3 9 -7 4 -12 -8 -12 -6 0 8 7 9 17 14 22 12 4 -3 13 4 19 15 11 21 20 26 20
10z m-136 -15 c11 -30 -76 -64 -129 -51 -38 10 -31 19 33 43 69 26 88 28 96 8z
m2585 -118 c100 -57 217 -166 233 -218 14 -49 3 -63 -48 -62 -51 2 -90 32
-277 217 -93 91 -173 166 -178 166 -5 0 -9 4 -9 9 0 14 195 -64 279 -112z
m-898 -69 c-26 -79 -42 -150 -46 -198 -3 -50 -2 -68 4 -55 5 11 10 34 11 50 1
17 10 55 20 85 20 55 19 41 -1 -60 -20 -99 5 -223 65 -322 19 -32 32 -58 29
-58 -3 0 -22 10 -42 22 l-36 21 24 -26 c22 -24 22 -27 6 -27 -10 0 -34 12 -54
27 l-36 26 34 -36 c31 -33 32 -35 10 -30 -13 3 -37 17 -53 32 l-29 26 18 -27
c9 -16 13 -28 8 -28 -16 0 -70 63 -93 109 -46 92 -64 279 -35 366 l13 40 -4
-60 -4 -60 13 60 c7 33 18 69 25 80 l11 20 1 -20 c1 -16 4 -14 12 8 5 15 14
27 19 27 6 0 7 5 4 10 -3 6 -1 10 4 10 6 0 10 3 10 8 -4 23 4 33 10 12 7 -23
9 -20 25 28 17 49 38 67 49 40 4 -8 8 -4 12 9 4 13 11 20 16 17 5 -3 9 1 10 8
0 10 2 10 6 1 2 -7 -14 -68 -36 -135z m-1808 75 c-7 -2 -21 -2 -30 0 -10 3 -4
5 12 5 17 0 24 -2 18 -5z m1066 -62 c-39 -69 -126 -112 -224 -109 -32 0 -28 2
21 9 56 7 155 47 168 67 3 5 -20 -4 -51 -20 -31 -15 -63 -28 -72 -27 -9 0 2 7
24 15 22 8 57 28 77 45 25 20 35 24 31 13 -12 -31 14 -6 27 26 7 17 15 29 17
26 3 -3 -5 -23 -18 -45z m-73 20 c-4 -5 -1 -11 6 -13 22 -8 -54 -51 -97 -55
-45 -6 -94 11 -65 21 31 12 155 55 158 56 2 0 1 -4 -2 -9z m2024 -51 c6 -11 8
-20 6 -20 -3 0 -10 9 -16 20 -6 11 -8 20 -6 20 3 0 10 -9 16 -20z m-1187 -20
c-3 -12 -8 -19 -11 -16 -5 6 5 36 12 36 2 0 2 -9 -1 -20z m141 -112 c18 -87
31 -185 23 -177 -8 6 -47 201 -47 230 0 37 8 18 24 -53z m-18 -83 c7 -33 13
-87 12 -120 l-1 -60 -8 70 c-13 100 -19 112 -14 27 2 -41 2 -72 -1 -69 -2 2
-11 45 -19 94 -8 50 -17 99 -20 109 -3 11 4 1 16 -21 19 -37 20 -38 15 -10 -3
17 -8 41 -11 55 -6 23 -5 24 6 5 7 -10 18 -46 25 -80z m1041 28 c-3 -10 -5 -4
-5 12 0 17 2 24 5 18 2 -7 2 -21 0 -30z m-1088 -67 c6 -33 10 -78 9 -100 l-1
-41 -7 50 -7 50 -3 -50 c-2 -45 -3 -47 -10 -20 -6 24 -8 26 -9 8 0 -13 -6 -23
-12 -23 -5 0 -8 4 -4 10 3 5 0 18 -6 29 -9 14 -10 27 -2 52 11 33 11 33 7 -11
-4 -37 -3 -42 7 -26 11 18 8 80 -7 121 -4 11 -4 17 0 13 4 -3 14 -28 22 -55
l14 -48 -6 49 c-3 27 -8 56 -11 65 -4 14 -3 14 5 1 6 -8 15 -42 21 -74z m-52
12 c-3 -8 -6 -5 -6 6 -1 11 2 17 5 13 3 -3 4 -12 1 -19z"/>
<path d="M2973 4083 c15 -2 37 -2 50 0 12 2 0 4 -28 4 -27 0 -38 -2 -22 -4z"/>
<path d="M3083 4073 c9 -2 23 -2 30 0 6 3 -1 5 -18 5 -16 0 -22 -2 -12 -5z"/>
<path d="M3168 4063 c6 -2 18 -2 25 0 6 3 1 5 -13 5 -14 0 -19 -2 -12 -5z"/>
<path d="M2690 4043 c-64 -8 -314 -63 -397 -89 -157 -47 -372 -160 -511 -268
-331 -256 -579 -580 -643 -841 -18 -70 -23 -121 -23 -230 -2 -249 43 -374 182
-513 69 -68 100 -90 175 -126 178 -85 334 -119 542 -119 164 0 276 14 435 53
279 70 473 154 710 309 121 79 340 300 437 442 53 76 132 240 162 334 74 230
57 479 -45 675 -100 191 -299 316 -583 364 -89 15 -344 20 -441 9z m180 -44
c-25 -4 -72 -9 -105 -10 -34 -1 1 -5 78 -9 77 -5 144 -13 149 -18 7 -7 -2 -9
-29 -5 -61 8 -295 -14 -439 -42 -70 -13 -129 -23 -131 -21 -2 1 22 11 54 22
l56 19 -39 5 c-36 5 -32 7 59 29 117 27 205 38 312 38 71 0 75 0 35 -8z m294
-85 c48 -8 125 -27 169 -42 l81 -27 15 -58 c13 -56 13 -60 -6 -79 -19 -18 -23
-19 -49 -5 -76 38 -278 87 -361 87 -29 0 -32 4 -52 62 -31 92 -32 91 47 83 37
-3 107 -13 156 -21z m301 -40 c49 -23 93 -52 122 -81 51 -53 106 -157 128
-240 21 -79 18 -112 -4 -38 -38 135 -94 214 -203 288 -65 44 -82 60 -37 37 10
-6 19 -9 19 -6 0 2 -25 19 -55 36 -48 27 -64 40 -51 40 2 0 38 -16 81 -36z
m-767 9 c-10 -2 -26 -2 -35 0 -10 3 -2 5 17 5 19 0 27 -2 18 -5z m-288 -16 c0
-2 13 -39 29 -84 l30 -80 -87 -32 c-48 -17 -123 -49 -166 -71 -43 -22 -80 -39
-81 -38 -1 2 -20 38 -43 80 l-42 77 22 13 c127 69 338 154 338 135z m825 -144
c77 -24 173 -69 206 -95 9 -7 16 -20 16 -29 0 -14 -4 -14 -28 -2 -16 8 -36 14
-46 13 -10 -1 -33 -2 -51 -2 -37 -1 -24 -18 14 -18 24 0 62 -25 52 -35 -3 -4
-55 2 -115 14 -59 11 -134 23 -165 27 -37 4 -63 13 -74 25 -9 11 -13 19 -8 20
5 0 0 4 -11 8 -13 5 -20 18 -21 42 -1 18 -7 35 -12 37 -6 2 -8 10 -5 19 9 22
143 9 248 -24z m217 -43 c4 -28 3 -29 -13 -14 -10 9 -15 22 -12 30 9 23 20 16
25 -16z m-977 -33 c9 -10 10 -18 3 -32 -8 -13 -8 -16 2 -10 8 5 11 3 8 -6 -8
-27 -258 -131 -258 -107 0 5 -16 16 -36 24 -20 8 -34 17 -32 19 10 10 177 89
223 106 62 22 73 23 90 6z m-585 -32 c-19 -14 -39 -25 -44 -25 -13 0 55 49 68
50 6 0 -5 -11 -24 -25z m84 -17 c-16 -17 -23 -27 -15 -23 10 5 12 4 7 -4 -11
-17 -66 -43 -66 -31 0 6 -4 8 -10 5 -14 -9 -12 9 3 24 10 10 8 11 -7 5 -30
-11 -10 13 24 31 27 14 29 14 23 -1 -4 -12 1 -11 28 5 46 28 48 26 13 -11z
m-230 -26 c-94 -65 -136 -91 -123 -77 24 25 123 93 129 88 2 -2 0 -7 -6 -11z
m266 -6 c0 -6 -92 -66 -102 -66 -23 0 -2 21 45 44 57 28 57 28 57 22z m1235
-52 c194 -32 372 -106 461 -191 22 -21 33 -33 25 -27 -87 63 -250 142 -326
159 -16 4 18 -13 76 -37 113 -47 217 -109 263 -157 27 -29 28 -33 20 -81 l-9
-51 -60 43 c-79 57 -230 126 -313 143 -109 22 -375 38 -520 31 -138 -7 -215
-20 -317 -56 -33 -12 -69 -23 -80 -24 -43 -6 -156 -46 -216 -76 -83 -43 -170
-101 -164 -111 3 -4 0 -11 -6 -15 -8 -5 -9 -3 -4 6 5 8 3 11 -6 8 -8 -3 -14
-10 -14 -18 0 -7 -11 -20 -25 -29 -17 -11 -22 -12 -16 -2 6 9 5 12 -5 9 -8 -3
-14 -10 -14 -16 0 -5 -4 -14 -9 -19 -5 -5 -6 -2 -1 6 5 9 3 12 -6 9 -8 -3 -14
-9 -14 -15 0 -9 -149 -153 -251 -242 -22 -20 10 12 70 71 111 108 140 154 35
55 -106 -99 -159 -133 -66 -43 48 47 113 104 143 127 31 22 53 43 50 46 -12
12 -134 -87 -281 -227 -54 -52 -87 -79 -71 -60 38 47 251 244 301 278 22 14
57 40 77 56 21 16 40 27 43 24 3 -3 -11 -18 -30 -33 -20 -15 -34 -29 -31 -32
3 -3 19 6 35 20 29 24 149 101 248 160 28 16 37 25 23 22 -30 -8 -95 -45 -173
-98 -32 -21 -61 -37 -63 -34 -4 4 21 21 156 106 14 9 38 22 54 29 16 7 27 15
24 18 -15 15 -231 -118 -388 -240 -90 -69 -133 -106 -224 -195 -48 -46 -68
-61 -52 -39 84 113 366 336 569 449 62 34 123 73 137 87 l25 26 -35 -21 c-19
-11 -75 -42 -123 -67 -49 -26 -107 -59 -130 -73 -69 -43 -256 -191 -349 -275
-49 -44 -88 -75 -88 -69 0 28 389 342 489 394 25 13 89 48 141 77 52 29 126
66 164 81 68 29 105 38 76 19 -22 -14 -7 -12 33 5 30 12 328 86 397 98 18 3
15 5 -11 6 -80 3 -411 -79 -546 -134 -313 -129 -648 -376 -819 -604 -75 -100
-155 -258 -180 -356 -9 -38 -19 -64 -22 -57 -7 21 38 182 65 237 51 100 150
232 248 330 119 119 123 122 245 211 216 158 427 265 638 323 289 79 490 94
727 55z m-1460 6 c-3 -5 -35 -31 -71 -56 -36 -26 -63 -49 -60 -52 5 -5 112 73
122 89 3 5 10 9 16 9 6 0 5 -7 -3 -16 -18 -22 -164 -120 -154 -104 5 9 4 11
-4 6 -6 -4 -9 -12 -6 -17 4 -5 -1 -12 -9 -15 -9 -3 -16 -10 -16 -15 0 -10 28
7 119 71 117 83 108 77 92 57 -8 -10 -44 -38 -80 -62 -36 -25 -79 -56 -96 -70
-27 -23 -27 -25 -5 -14 14 6 53 31 88 55 67 47 122 78 122 69 0 -3 -38 -30
-85 -61 -47 -31 -85 -58 -85 -60 0 -6 98 44 141 73 34 22 59 24 59 5 0 -4 -17
-18 -38 -32 -47 -31 -96 -70 -87 -70 4 0 21 10 38 22 17 12 27 16 23 10 -4 -7
-53 -47 -109 -88 -108 -80 -118 -91 -171 -167 l-34 -49 -42 56 c-49 65 -48 73
20 154 102 120 117 135 130 127 8 -5 11 -4 6 3 -4 6 30 40 81 81 82 66 112 84
98 61z m213 -4 c-20 -15 -24 -31 -5 -20 6 4 3 -3 -8 -15 l-19 -22 27 10 c34
13 34 10 -2 -17 -27 -20 -30 -20 -43 -5 -11 14 -11 16 1 8 10 -5 12 -4 7 3 -4
7 -14 12 -22 12 -26 0 -14 16 29 37 49 25 59 28 35 9z m52 -61 c0 -7 -81 -47
-86 -42 -9 8 27 29 84 46 1 1 2 -1 2 -4z m-180 -69 c0 -2 -8 -10 -17 -17 -16
-13 -17 -12 -4 4 13 16 21 21 21 13z m23 -68 c-2 -5 -10 -8 -17 -8 -8 0 -24
-9 -37 -20 -24 -19 -24 -19 16 0 22 10 51 21 65 25 24 6 24 5 -5 -20 -21 -19
-23 -24 -8 -16 37 18 43 12 25 -21 -12 -21 -54 -56 -118 -98 -94 -62 -214
-126 -214 -114 0 2 9 24 20 47 20 41 20 41 1 19 -11 -12 -26 -21 -33 -20 -7 2
-12 -5 -11 -16 1 -12 -2 -15 -9 -8 -22 22 75 122 199 205 49 33 93 54 107 53
13 0 22 -4 19 -8z m1396 -19 c170 -39 308 -89 386 -140 41 -27 75 -55 75 -62
0 -23 -56 -179 -92 -259 -39 -83 -109 -195 -152 -243 -15 -16 -45 -53 -66 -82
-22 -28 -65 -73 -96 -100 -31 -26 -81 -69 -111 -94 -81 -70 -179 -133 -326
-209 -311 -161 -686 -243 -1007 -219 -155 11 -315 56 -413 116 -35 22 -37 26
-32 61 24 142 100 361 162 466 44 75 177 250 213 279 15 12 70 60 122 107 213
191 520 332 818 375 247 36 374 37 519 4z m-950 -83 c-10 -9 -69 -36 -69 -32
0 7 52 35 64 36 5 0 7 -2 5 -4z m-144 -76 c-3 -5 -16 -15 -28 -21 -19 -9 -19
-8 3 10 28 23 34 26 25 11z m-933 -337 c29 -28 36 -57 17 -69 -6 -3 -31 -47
-55 -97 l-44 -91 0 50 c0 80 32 234 48 234 3 0 19 -12 34 -27z m358 -108 c-24
-25 -46 -45 -49 -45 -3 0 15 20 39 45 24 25 46 45 49 45 3 0 -15 -20 -39 -45z
m-310 8 c0 -16 -55 -119 -69 -130 -15 -11 -14 -12 2 -13 11 0 28 21 49 65 25
50 35 62 45 53 33 -27 -3 -190 -37 -168 -10 6 -11 10 -2 10 6 0 12 4 12 9 0 6
-12 6 -32 0 -53 -15 -67 -9 -16 7 28 8 52 23 59 36 l12 21 -28 -21 c-15 -12
-41 -22 -57 -22 -26 0 -29 3 -22 23 21 70 57 137 74 137 6 0 10 -3 10 -7z
m310 -46 c0 -2 -12 -14 -27 -28 l-28 -24 24 28 c23 25 31 32 31 24z m-75 -164
c-60 -115 -87 -154 -59 -88 17 42 80 161 97 183 26 34 13 2 -38 -95z m-16 38
c-18 -28 -34 -49 -37 -46 -2 2 10 27 28 55 18 28 34 49 37 47 2 -3 -11 -28
-28 -56z m-61 -106 c-12 -24 -23 -43 -26 -41 -4 5 36 86 43 86 3 0 -5 -20 -17
-45z m-188 -136 c-5 -41 -10 -83 -10 -93 0 -20 0 -20 -15 0 -8 10 -15 28 -15
38 0 21 41 139 46 133 2 -2 0 -37 -6 -78z"/>
<path d="M3248 3613 c7 -3 16 -2 19 1 4 3 -2 6 -13 5 -11 0 -14 -3 -6 -6z"/>
<path d="M2908 3483 c7 -3 16 -2 19 1 4 3 -2 6 -13 5 -11 0 -14 -3 -6 -6z"/>
<path d="M2815 3469 c-16 -6 -69 -19 -118 -30 -85 -19 -222 -67 -214 -76 2 -2
40 10 83 26 43 16 113 36 154 45 107 22 180 44 150 44 -14 0 -38 -4 -55 -9z"/>
<path d="M2720 3411 c-123 -32 -213 -61 -207 -67 3 -3 297 77 332 90 32 13
-34 0 -125 -23z"/>
<path d="M2710 3376 c-100 -27 -223 -67 -218 -71 3 -4 193 49 288 79 70 22 25
17 -70 -8z"/>
<path d="M2878 3373 c7 -3 16 -2 19 1 4 3 -2 6 -13 5 -11 0 -14 -3 -6 -6z"/>
<path d="M2828 3363 c7 -3 16 -2 19 1 4 3 -2 6 -13 5 -11 0 -14 -3 -6 -6z"/>
<path d="M2470 3330 c-8 -5 -10 -10 -5 -10 6 0 17 5 25 10 8 5 11 10 5 10 -5
0 -17 -5 -25 -10z"/>
<path d="M2300 3240 c-8 -5 -10 -10 -5 -10 6 0 17 5 25 10 8 5 11 10 5 10 -5
0 -17 -5 -25 -10z"/>
<path d="M2025 3050 c-3 -5 -2 -10 4 -10 5 0 13 5 16 10 3 6 2 10 -4 10 -5 0
-13 -4 -16 -10z"/>
<path d="M1918 2969 l-33 -31 38 27 c20 15 37 29 37 31 0 10 -12 2 -42 -27z"/>
<path d="M1805 3390 c-22 -16 -44 -29 -50 -30 -5 0 -23 -12 -40 -26 l-30 -25
35 18 c46 24 146 93 134 93 -5 -1 -27 -14 -49 -30z"/>
<path d="M1654 3158 l-19 -23 23 19 c21 18 27 26 19 26 -2 0 -12 -10 -23 -22z"/>
<path d="M1672 3121 c-38 -47 -43 -70 -7 -26 27 32 48 65 42 65 -2 0 -18 -18
-35 -39z"/>
<path d="M3258 4043 c7 -3 16 -2 19 1 4 3 -2 6 -13 5 -11 0 -14 -3 -6 -6z"/>
<path d="M3450 3969 c41 -22 91 -50 110 -61 l35 -20 -30 27 c-28 24 -164 95
-182 95 -4 0 26 -19 67 -41z"/>
<path d="M3699 3776 c51 -67 101 -157 127 -226 7 -19 13 -28 13 -20 2 47 -105
235 -164 290 -15 14 -4 -6 24 -44z"/>
<path d="M3852 3354 c-1 -50 -4 -113 -7 -140 l-4 -49 10 48 c5 27 8 90 6 140
l-3 92 -2 -91z"/>
<path d="M3796 2979 c-8 -29 -13 -55 -11 -57 2 -2 11 20 19 49 9 29 14 54 12
56 -2 3 -11 -19 -20 -48z"/>
<path d="M1071 2578 c-2 -34 21 -169 35 -206 8 -20 12 -26 9 -12 -3 14 -10 50
-15 80 -22 129 -28 154 -29 138z"/>
<path d="M3245 2254 c-77 -58 -244 -158 -362 -218 -51 -25 -93 -48 -93 -51 0
-17 175 69 286 141 46 29 96 60 111 68 28 14 133 105 123 105 -3 1 -32 -20
-65 -45z"/>
<path d="M1265 2090 c27 -27 51 -50 54 -50 3 0 -17 23 -44 50 -27 28 -51 50
-54 50 -3 0 17 -22 44 -50z"/>
<path d="M2448 1873 c7 -3 16 -2 19 1 4 3 -2 6 -13 5 -11 0 -14 -3 -6 -6z"/>
<path d="M1725 1855 c28 -7 68 -13 90 -13 29 0 20 4 -35 13 -94 17 -120 17
-55 0z"/>
<path d="M1645 1841 c11 -5 40 -11 65 -15 30 -4 36 -3 20 3 -37 12 -109 22
-85 12z"/>
<path d="M1878 1833 c12 -2 30 -2 40 0 9 3 -1 5 -23 4 -22 0 -30 -2 -17 -4z"/>
<path d="M1773 1813 c9 -2 23 -2 30 0 6 3 -1 5 -18 5 -16 0 -22 -2 -12 -5z"/>
<path d="M1421 3584 c0 -11 3 -14 6 -6 3 7 2 16 -1 19 -3 4 -6 -2 -5 -13z"/>
<path d="M4212 3214 c-29 -24 -49 -44 -43 -44 5 0 31 20 58 45 62 57 54 57
-15 -1z"/>
<path d="M4012 3350 c0 -14 2 -19 5 -12 2 6 2 18 0 25 -3 6 -5 1 -5 -13z"/>
<path d="M4190 2880 c-20 -6 -21 -8 -5 -8 11 0 29 3 40 8 25 11 -1 11 -35 0z"/>
<path d="M3519 2023 c-13 -16 -12 -17 4 -4 9 7 17 15 17 17 0 8 -8 3 -21 -13z"/>
<path d="M3379 1793 c-13 -16 -12 -17 4 -4 9 7 17 15 17 17 0 8 -8 3 -21 -13z"/>
<path d="M2720 1625 c-14 -8 -20 -14 -15 -14 6 0 21 6 35 14 14 8 21 14 15 14
-5 0 -21 -6 -35 -14z"/>
<path d="M2815 1515 c-25 -12 -26 -14 -5 -9 28 7 60 23 45 23 -5 0 -23 -6 -40
-14z"/>
<path d="M2235 1419 c-39 -25 -119 -49 -203 -59 l-67 -9 88 3 c69 3 98 9 141
30 30 15 59 33 66 41 16 19 12 18 -25 -6z"/>
<path d="M1968 1403 c7 -3 16 -2 19 1 4 3 -2 6 -13 5 -11 0 -14 -3 -6 -6z"/>
<path d="M2035 1400 l-40 -7 35 -1 c19 0 46 4 60 8 32 10 2 10 -55 0z"/>
<path d="M2223 1378 c-44 -27 -127 -48 -189 -48 -54 0 -179 33 -189 50 -3 6
-11 10 -17 10 -25 0 43 -40 103 -60 84 -29 172 -24 249 12 31 14 62 33 69 42
17 20 14 19 -26 -6z"/>
<path d="M1938 1363 c7 -3 16 -2 19 1 4 3 -2 6 -13 5 -11 0 -14 -3 -6 -6z"/>
<path d="M4185 1341 c-3 -5 -2 -12 3 -15 5 -3 9 1 9 9 0 17 -3 19 -12 6z"/>
<path d="M4230 1292 c0 -7 -5 -11 -12 -9 -7 1 -12 -2 -13 -8 0 -5 -4 -15 -8
-21 -4 -7 0 -17 8 -24 8 -7 12 -17 8 -23 -3 -6 -1 -7 6 -3 8 6 9 11 2 20 -17
20 20 50 39 33 8 -6 6 -1 -5 13 -11 14 -21 27 -22 29 -2 2 -3 -1 -3 -7z m10
-17 c0 -1 -10 -10 -22 -21 -14 -12 -18 -13 -10 -3 6 9 10 18 7 21 -3 2 2 5 10
5 8 0 15 -1 15 -2z"/>
<path d="M1082 1879 c-57 -29 -102 -104 -101 -169 1 -25 4 -34 6 -20 12 74 56
133 143 192 36 25 4 22 -48 -3z"/>
<path d="M1128 1848 c-7 -7 -20 -14 -28 -16 -8 -2 -26 -15 -40 -30 l-25 -26
26 22 c35 31 44 28 20 -7 -12 -16 -21 -40 -20 -53 0 -20 2 -20 11 7 6 17 26
47 46 67 20 21 33 40 30 43 -3 3 -12 0 -20 -7z"/>
<path d="M1021 1734 c0 -11 3 -14 6 -6 3 7 2 16 -1 19 -3 4 -6 -2 -5 -13z"/>
<path d="M1280 1559 c-25 -4 -72 -8 -105 -9 -56 -2 -58 -3 -21 -10 37 -7 169
9 182 23 8 8 7 8 -56 -4z"/>
<path d="M3613 1375 c0 -7 6 -11 14 -8 7 3 13 6 13 8 0 2 -6 5 -13 8 -8 3 -14
-1 -14 -8z"/>
<path d="M3443 1367 c-22 -12 -21 -13 22 -39 25 -15 44 -22 42 -16 -1 6 4 13
12 16 9 3 11 0 6 -8 -6 -9 -3 -9 14 -1 28 15 27 18 -9 16 -16 -1 -30 2 -30 7
0 4 8 8 18 8 9 1 2 7 -17 15 -18 8 -34 15 -35 15 0 -1 -11 -6 -23 -13z m57
-43 c0 -2 -9 0 -20 6 -11 6 -20 13 -20 16 0 2 9 0 20 -6 11 -6 20 -13 20 -16z"/>
<path d="M4093 941 c33 -40 29 -51 -10 -26 -21 14 -25 15 -15 3 10 -13 10 -17
-3 -22 -8 -3 -21 -3 -27 -1 -10 4 -12 -13 -9 -72 3 -59 6 -71 11 -48 4 17 8
45 9 63 1 28 4 32 29 32 16 0 51 -7 77 -15 27 -8 50 -13 51 -12 2 1 -30 32
-69 67 -40 36 -59 50 -44 31z"/>
</g>
</svg>
