<svg id="visual" viewBox="0 0 900 550" width="900" height="550" xmlns="http://www.w3.org/2000/svg" xmlns:xlink="http://www.w3.org/1999/xlink" version="1.1"><path d="M0 45L450 12L900 23L900 0L450 0L0 0Z" fill="#000000"></path><path d="M0 100L450 40L900 73L900 21L450 10L0 43Z" fill="#4b0000"></path><path d="M0 166L450 117L900 133L900 71L450 38L0 98Z" fill="#590000"></path><path d="M0 232L450 216L900 210L900 131L450 115L0 164Z" fill="#680000"></path><path d="M0 260L450 227L900 221L900 208L450 214L0 230Z" fill="#780000"></path><path d="M0 353L450 293L900 309L900 219L450 225L0 258Z" fill="#891400"></path><path d="M0 375L450 326L900 348L900 307L450 291L0 351Z" fill="#9b2601"></path><path d="M0 447L450 370L900 458L900 346L450 324L0 373Z" fill="#ad3503"></path><path d="M0 469L450 386L900 485L900 456L450 368L0 445Z" fill="#bf4405"></path><path d="M0 491L450 430L900 524L900 483L450 384L0 467Z" fill="#d15406"></path><path d="M0 518L450 513L900 546L900 522L450 428L0 489Z" fill="#e36308"></path><path d="M0 551L450 551L900 551L900 544L450 511L0 516Z" fill="#f5730a"></path></svg>