<svg id="visual" viewBox="0 0 625 300" width="625" height="300" xmlns="http://www.w3.org/2000/svg" xmlns:xlink="http://www.w3.org/1999/xlink" version="1.1"><path d="M0 22L14.8 20C29.7 18 59.3 14 89.2 14C119 14 149 18 178.8 18.5C208.7 19 238.3 16 268 16C297.7 16 327.3 19 357 20.5C386.7 22 416.3 22 446.2 21.5C476 21 506 20 535.8 18.5C565.7 17 595.3 15 610.2 14L625 13L625 0L610.2 0C595.3 0 565.7 0 535.8 0C506 0 476 0 446.2 0C416.3 0 386.7 0 357 0C327.3 0 297.7 0 268 0C238.3 0 208.7 0 178.8 0C149 0 119 0 89.2 0C59.3 0 29.7 0 14.8 0L0 0Z" fill="#ff4c0f"></path><path d="M0 37L14.8 35C29.7 33 59.3 29 89.2 28.5C119 28 149 31 178.8 31.5C208.7 32 238.3 30 268 31C297.7 32 327.3 36 357 36.5C386.7 37 416.3 34 446.2 32.5C476 31 506 31 535.8 29.5C565.7 28 595.3 25 610.2 23.5L625 22L625 11L610.2 12C595.3 13 565.7 15 535.8 16.5C506 18 476 19 446.2 19.5C416.3 20 386.7 20 357 18.5C327.3 17 297.7 14 268 14C238.3 14 208.7 17 178.8 16.5C149 16 119 12 89.2 12C59.3 12 29.7 16 14.8 18L0 20Z" fill="#ff551d"></path><path d="M0 58L14.8 57.5C29.7 57 59.3 56 89.2 55C119 54 149 53 178.8 52.5C208.7 52 238.3 52 268 52.5C297.7 53 327.3 54 357 53.5C386.7 53 416.3 51 446.2 51C476 51 506 53 535.8 51C565.7 49 595.3 43 610.2 40L625 37L625 20L610.2 21.5C595.3 23 565.7 26 535.8 27.5C506 29 476 29 446.2 30.5C416.3 32 386.7 35 357 34.5C327.3 34 297.7 30 268 29C238.3 28 208.7 30 178.8 29.5C149 29 119 26 89.2 26.5C59.3 27 29.7 31 14.8 33L0 35Z" fill="#ff5d28"></path><path d="M0 121L14.8 121.5C29.7 122 59.3 123 89.2 118C119 113 149 102 178.8 104C208.7 106 238.3 121 268 126.5C297.7 132 327.3 128 357 123.5C386.7 119 416.3 114 446.2 108C476 102 506 95 535.8 95.5C565.7 96 595.3 104 610.2 108L625 112L625 35L610.2 38C595.3 41 565.7 47 535.8 49C506 51 476 49 446.2 49C416.3 49 386.7 51 357 51.5C327.3 52 297.7 51 268 50.5C238.3 50 208.7 50 178.8 50.5C149 51 119 52 89.2 53C59.3 54 29.7 55 14.8 55.5L0 56Z" fill="#ff6532"></path><path d="M0 136L14.8 136C29.7 136 59.3 136 89.2 130C119 124 149 112 178.8 115C208.7 118 238.3 136 268 141.5C297.7 147 327.3 140 357 134.5C386.7 129 416.3 125 446.2 119.5C476 114 506 107 535.8 107.5C565.7 108 595.3 116 610.2 120L625 124L625 110L610.2 106C595.3 102 565.7 94 535.8 93.5C506 93 476 100 446.2 106C416.3 112 386.7 117 357 121.5C327.3 126 297.7 130 268 124.5C238.3 119 208.7 104 178.8 102C149 100 119 111 89.2 116C59.3 121 29.7 120 14.8 119.5L0 119Z" fill="#ff6d3b"></path><path d="M0 157L14.8 156C29.7 155 59.3 153 89.2 148C119 143 149 135 178.8 139C208.7 143 238.3 159 268 162.5C297.7 166 327.3 157 357 152.5C386.7 148 416.3 148 446.2 142.5C476 137 506 126 535.8 126C565.7 126 595.3 137 610.2 142.5L625 148L625 122L610.2 118C595.3 114 565.7 106 535.8 105.5C506 105 476 112 446.2 117.5C416.3 123 386.7 127 357 132.5C327.3 138 297.7 145 268 139.5C238.3 134 208.7 116 178.8 113C149 110 119 122 89.2 128C59.3 134 29.7 134 14.8 134L0 134Z" fill="#ff703f"></path><path d="M0 193L14.8 195C29.7 197 59.3 201 89.2 195C119 189 149 173 178.8 171.5C208.7 170 238.3 183 268 185C297.7 187 327.3 178 357 177C386.7 176 416.3 183 446.2 180C476 177 506 164 535.8 165C565.7 166 595.3 181 610.2 188.5L625 196L625 146L610.2 140.5C595.3 135 565.7 124 535.8 124C506 124 476 135 446.2 140.5C416.3 146 386.7 146 357 150.5C327.3 155 297.7 164 268 160.5C238.3 157 208.7 141 178.8 137C149 133 119 141 89.2 146C59.3 151 29.7 153 14.8 154L0 155Z" fill="#ff703f"></path><path d="M0 229L14.8 228C29.7 227 59.3 225 89.2 216.5C119 208 149 193 178.8 193.5C208.7 194 238.3 210 268 213.5C297.7 217 327.3 208 357 205C386.7 202 416.3 205 446.2 201.5C476 198 506 188 535.8 190.5C565.7 193 595.3 208 610.2 215.5L625 223L625 194L610.2 186.5C595.3 179 565.7 164 535.8 163C506 162 476 175 446.2 178C416.3 181 386.7 174 357 175C327.3 176 297.7 185 268 183C238.3 181 208.7 168 178.8 169.5C149 171 119 187 89.2 193C59.3 199 29.7 195 14.8 193L0 191Z" fill="#ff6d3b"></path><path d="M0 244L14.8 244C29.7 244 59.3 244 89.2 235.5C119 227 149 210 178.8 209.5C208.7 209 238.3 225 268 229.5C297.7 234 327.3 227 357 223C386.7 219 416.3 218 446.2 213C476 208 506 199 535.8 202C565.7 205 595.3 220 610.2 227.5L625 235L625 221L610.2 213.5C595.3 206 565.7 191 535.8 188.5C506 186 476 196 446.2 199.5C416.3 203 386.7 200 357 203C327.3 206 297.7 215 268 211.5C238.3 208 208.7 192 178.8 191.5C149 191 119 206 89.2 214.5C59.3 223 29.7 225 14.8 226L0 227Z" fill="#ff6532"></path><path d="M0 286L14.8 286C29.7 286 59.3 286 89.2 285C119 284 149 282 178.8 282C208.7 282 238.3 284 268 283.5C297.7 283 327.3 280 357 279.5C386.7 279 416.3 281 446.2 280.5C476 280 506 277 535.8 276.5C565.7 276 595.3 278 610.2 279L625 280L625 233L610.2 225.5C595.3 218 565.7 203 535.8 200C506 197 476 206 446.2 211C416.3 216 386.7 217 357 221C327.3 225 297.7 232 268 227.5C238.3 223 208.7 207 178.8 207.5C149 208 119 225 89.2 233.5C59.3 242 29.7 242 14.8 242L0 242Z" fill="#ff5d28"></path><path d="M0 295L14.8 294.5C29.7 294 59.3 293 89.2 293C119 293 149 294 178.8 294.5C208.7 295 238.3 295 268 293.5C297.7 292 327.3 289 357 288.5C386.7 288 416.3 290 446.2 290.5C476 291 506 290 535.8 290.5C565.7 291 595.3 293 610.2 294L625 295L625 278L610.2 277C595.3 276 565.7 274 535.8 274.5C506 275 476 278 446.2 278.5C416.3 279 386.7 277 357 277.5C327.3 278 297.7 281 268 281.5C238.3 282 208.7 280 178.8 280C149 280 119 282 89.2 283C59.3 284 29.7 284 14.8 284L0 284Z" fill="#ff551d"></path><path d="M0 301L14.8 301C29.7 301 59.3 301 89.2 301C119 301 149 301 178.8 301C208.7 301 238.3 301 268 301C297.7 301 327.3 301 357 301C386.7 301 416.3 301 446.2 301C476 301 506 301 535.8 301C565.7 301 595.3 301 610.2 301L625 301L625 293L610.2 292C595.3 291 565.7 289 535.8 288.5C506 288 476 289 446.2 288.5C416.3 288 386.7 286 357 286.5C327.3 287 297.7 290 268 291.5C238.3 293 208.7 293 178.8 292.5C149 292 119 291 89.2 291C59.3 291 29.7 292 14.8 292.5L0 293Z" fill="#ff4c0f"></path></svg>