<svg id="visual" viewBox="0 0 625 300" width="625" height="300" xmlns="http://www.w3.org/2000/svg" xmlns:xlink="http://www.w3.org/1999/xlink" version="1.1"><path d="M0 16L14.8 15.5C29.7 15 59.3 14 89.2 15.5C119 17 149 21 178.8 21C208.7 21 238.3 17 268 17.5C297.7 18 327.3 23 357 25.5C386.7 28 416.3 28 446.2 28C476 28 506 28 535.8 26.5C565.7 25 595.3 22 610.2 20.5L625 19L625 0L610.2 0C595.3 0 565.7 0 535.8 0C506 0 476 0 446.2 0C416.3 0 386.7 0 357 0C327.3 0 297.7 0 268 0C238.3 0 208.7 0 178.8 0C149 0 119 0 89.2 0C59.3 0 29.7 0 14.8 0L0 0Z" fill="#843e8d"></path><path d="M0 34L14.8 33.5C29.7 33 59.3 32 89.2 33C119 34 149 37 178.8 35.5C208.7 34 238.3 28 268 29.5C297.7 31 327.3 40 357 43.5C386.7 47 416.3 45 446.2 44C476 43 506 43 535.8 40.5C565.7 38 595.3 33 610.2 30.5L625 28L625 17L610.2 18.5C595.3 20 565.7 23 535.8 24.5C506 26 476 26 446.2 26C416.3 26 386.7 26 357 23.5C327.3 21 297.7 16 268 15.5C238.3 15 208.7 19 178.8 19C149 19 119 15 89.2 13.5C59.3 12 29.7 13 14.8 13.5L0 14Z" fill="#7b3784"></path><path d="M0 55L14.8 59.5C29.7 64 59.3 73 89.2 78C119 83 149 84 178.8 81.5C208.7 79 238.3 73 268 74C297.7 75 327.3 83 357 84C386.7 85 416.3 79 446.2 77C476 75 506 77 535.8 76.5C565.7 76 595.3 73 610.2 71.5L625 70L625 26L610.2 28.5C595.3 31 565.7 36 535.8 38.5C506 41 476 41 446.2 42C416.3 43 386.7 45 357 41.5C327.3 38 297.7 29 268 27.5C238.3 26 208.7 32 178.8 33.5C149 35 119 32 89.2 31C59.3 30 29.7 31 14.8 31.5L0 32Z" fill="#732f7c"></path><path d="M0 112L14.8 113.5C29.7 115 59.3 118 89.2 120C119 122 149 123 178.8 124.5C208.7 126 238.3 128 268 131.5C297.7 135 327.3 140 357 139.5C386.7 139 416.3 133 446.2 134C476 135 506 143 535.8 138.5C565.7 134 595.3 117 610.2 108.5L625 100L625 68L610.2 69.5C595.3 71 565.7 74 535.8 74.5C506 75 476 73 446.2 75C416.3 77 386.7 83 357 82C327.3 81 297.7 73 268 72C238.3 71 208.7 77 178.8 79.5C149 82 119 81 89.2 76C59.3 71 29.7 62 14.8 57.5L0 53Z" fill="#6a2873"></path><path d="M0 130L14.8 130.5C29.7 131 59.3 132 89.2 134C119 136 149 139 178.8 141.5C208.7 144 238.3 146 268 148C297.7 150 327.3 152 357 150.5C386.7 149 416.3 144 446.2 145.5C476 147 506 155 535.8 151.5C565.7 148 595.3 133 610.2 125.5L625 118L625 98L610.2 106.5C595.3 115 565.7 132 535.8 136.5C506 141 476 133 446.2 132C416.3 131 386.7 137 357 137.5C327.3 138 297.7 133 268 129.5C238.3 126 208.7 124 178.8 122.5C149 121 119 120 89.2 118C59.3 116 29.7 113 14.8 111.5L0 110Z" fill="#62206b"></path><path d="M0 205L14.8 205C29.7 205 59.3 205 89.2 206.5C119 208 149 211 178.8 210C208.7 209 238.3 204 268 200C297.7 196 327.3 193 357 194.5C386.7 196 416.3 202 446.2 204.5C476 207 506 206 535.8 203C565.7 200 595.3 195 610.2 192.5L625 190L625 116L610.2 123.5C595.3 131 565.7 146 535.8 149.5C506 153 476 145 446.2 143.5C416.3 142 386.7 147 357 148.5C327.3 150 297.7 148 268 146C238.3 144 208.7 142 178.8 139.5C149 137 119 134 89.2 132C59.3 130 29.7 129 14.8 128.5L0 128Z" fill="#5f1d68"></path><path d="M0 220L14.8 219C29.7 218 59.3 216 89.2 217C119 218 149 222 178.8 221C208.7 220 238.3 214 268 210C297.7 206 327.3 204 357 206C386.7 208 416.3 214 446.2 216.5C476 219 506 218 535.8 214.5C565.7 211 595.3 205 610.2 202L625 199L625 188L610.2 190.5C595.3 193 565.7 198 535.8 201C506 204 476 205 446.2 202.5C416.3 200 386.7 194 357 192.5C327.3 191 297.7 194 268 198C238.3 202 208.7 207 178.8 208C149 209 119 206 89.2 204.5C59.3 203 29.7 203 14.8 203L0 203Z" fill="#5f1d68"></path><path d="M0 235L14.8 234C29.7 233 59.3 231 89.2 232C119 233 149 237 178.8 238.5C208.7 240 238.3 239 268 237.5C297.7 236 327.3 234 357 236C386.7 238 416.3 244 446.2 246C476 248 506 246 535.8 242C565.7 238 595.3 232 610.2 229L625 226L625 197L610.2 200C595.3 203 565.7 209 535.8 212.5C506 216 476 217 446.2 214.5C416.3 212 386.7 206 357 204C327.3 202 297.7 204 268 208C238.3 212 208.7 218 178.8 219C149 220 119 216 89.2 215C59.3 214 29.7 216 14.8 217L0 218Z" fill="#62206b"></path><path d="M0 268L14.8 267.5C29.7 267 59.3 266 89.2 264C119 262 149 259 178.8 257.5C208.7 256 238.3 256 268 257C297.7 258 327.3 260 357 262.5C386.7 265 416.3 268 446.2 269C476 270 506 269 535.8 267C565.7 265 595.3 262 610.2 260.5L625 259L625 224L610.2 227C595.3 230 565.7 236 535.8 240C506 244 476 246 446.2 244C416.3 242 386.7 236 357 234C327.3 232 297.7 234 268 235.5C238.3 237 208.7 238 178.8 236.5C149 235 119 231 89.2 230C59.3 229 29.7 231 14.8 232L0 233Z" fill="#6a2873"></path><path d="M0 277L14.8 277.5C29.7 278 59.3 279 89.2 278C119 277 149 274 178.8 271.5C208.7 269 238.3 267 268 267C297.7 267 327.3 269 357 272.5C386.7 276 416.3 281 446.2 282C476 283 506 280 535.8 278C565.7 276 595.3 275 610.2 274.5L625 274L625 257L610.2 258.5C595.3 260 565.7 263 535.8 265C506 267 476 268 446.2 267C416.3 266 386.7 263 357 260.5C327.3 258 297.7 256 268 255C238.3 254 208.7 254 178.8 255.5C149 257 119 260 89.2 262C59.3 264 29.7 265 14.8 265.5L0 266Z" fill="#732f7c"></path><path d="M0 283L14.8 283.5C29.7 284 59.3 285 89.2 284.5C119 284 149 282 178.8 281C208.7 280 238.3 280 268 280C297.7 280 327.3 280 357 282C386.7 284 416.3 288 446.2 289.5C476 291 506 290 535.8 289C565.7 288 595.3 287 610.2 286.5L625 286L625 272L610.2 272.5C595.3 273 565.7 274 535.8 276C506 278 476 281 446.2 280C416.3 279 386.7 274 357 270.5C327.3 267 297.7 265 268 265C238.3 265 208.7 267 178.8 269.5C149 272 119 275 89.2 276C59.3 277 29.7 276 14.8 275.5L0 275Z" fill="#7b3784"></path><path d="M0 301L14.8 301C29.7 301 59.3 301 89.2 301C119 301 149 301 178.8 301C208.7 301 238.3 301 268 301C297.7 301 327.3 301 357 301C386.7 301 416.3 301 446.2 301C476 301 506 301 535.8 301C565.7 301 595.3 301 610.2 301L625 301L625 284L610.2 284.5C595.3 285 565.7 286 535.8 287C506 288 476 289 446.2 287.5C416.3 286 386.7 282 357 280C327.3 278 297.7 278 268 278C238.3 278 208.7 278 178.8 279C149 280 119 282 89.2 282.5C59.3 283 29.7 282 14.8 281.5L0 281Z" fill="#843e8d"></path></svg>