<?xml version="1.0" encoding="UTF-8"?>
<!DOCTYPE svg PUBLIC "-//W3C//DTD SVG 1.1//EN" "http://www.w3.org/Graphics/SVG/1.1/DTD/svg11.dtd">
<svg xmlns="http://www.w3.org/2000/svg" version="1.1" width="400px" height="400px" style="shape-rendering:geometricPrecision; text-rendering:geometricPrecision; image-rendering:optimizeQuality; fill-rule:evenodd; clip-rule:evenodd" xmlns:xlink="http://www.w3.org/1999/xlink">
<g><path style="opacity:0.787" fill="#020702" d="M 190.5,4.5 C 267.831,4.40152 326.998,36.7349 368,101.5C 404.116,169.071 403.116,236.071 365,302.5C 325.882,361.324 270.715,391.991 199.5,394.5C 115.758,390.41 55.9245,350.743 20,275.5C -4.03109,213.571 0.635579,153.904 34,96.5C 71.1289,40.5924 123.296,9.92576 190.5,4.5 Z M 160.5,110.5 C 211.719,109.091 261.052,117.925 308.5,137C 316.324,140.745 323.991,144.745 331.5,149C 337.986,155.98 339.153,163.814 335,172.5C 330.189,178.437 324.022,180.604 316.5,179C 276.257,157.522 233.257,146.188 187.5,145C 154.95,143.209 122.95,146.543 91.5,155C 81.485,157.242 74.3183,153.742 70,144.5C 67.8063,136.46 69.973,129.96 76.5,125C 87.1314,120.739 98.1314,117.739 109.5,116C 126.559,113.285 143.559,111.452 160.5,110.5 Z M 147.5,176.5 C 203.425,172.85 255.758,184.683 304.5,212C 312.384,218.416 313.384,225.749 307.5,234C 302.541,237.727 297.208,238.727 291.5,237C 259.101,218.091 224.101,207.425 186.5,205C 156.617,202.777 127.284,205.777 98.5,214C 88.7583,214.781 83.0917,210.281 81.5,200.5C 81.7902,195.752 83.7902,191.919 87.5,189C 93.6278,186.402 99.9611,184.402 106.5,183C 120.201,180.116 133.867,177.95 147.5,176.5 Z M 149.5,238.5 C 196.977,234.627 241.31,244.46 282.5,268C 288.779,273.633 289.112,279.633 283.5,286C 280.454,288.174 277.12,288.841 273.5,288C 235.491,265.73 194.491,256.73 150.5,261C 132.739,263.018 115.072,265.351 97.5,268C 88.905,263.211 87.5716,256.878 93.5,249C 101.276,246.243 109.276,244.243 117.5,243C 128.29,241.32 138.957,239.82 149.5,238.5 Z"/></g>
<g><path style="opacity:0.986" fill="#2dbc58" d="M 183.5,9.5 C 262.799,6.7249 323.299,38.7249 365,105.5C 397.328,167.328 397.661,229.328 366,291.5C 324.628,359.777 263.795,392.277 183.5,389C 120.248,381.808 71.4149,351.641 37,298.5C 6.33495,244.85 1.33495,188.85 22,130.5C 52.8856,59.4798 106.719,19.1465 183.5,9.5 Z M 160.5,110.5 C 143.559,111.452 126.559,113.285 109.5,116C 98.1314,117.739 87.1314,120.739 76.5,125C 69.973,129.96 67.8063,136.46 70,144.5C 74.3183,153.742 81.485,157.242 91.5,155C 122.95,146.543 154.95,143.209 187.5,145C 233.257,146.188 276.257,157.522 316.5,179C 324.022,180.604 330.189,178.437 335,172.5C 339.153,163.814 337.986,155.98 331.5,149C 323.991,144.745 316.324,140.745 308.5,137C 261.052,117.925 211.719,109.091 160.5,110.5 Z M 147.5,176.5 C 133.867,177.95 120.201,180.116 106.5,183C 99.9611,184.402 93.6278,186.402 87.5,189C 83.7902,191.919 81.7902,195.752 81.5,200.5C 83.0917,210.281 88.7583,214.781 98.5,214C 127.284,205.777 156.617,202.777 186.5,205C 224.101,207.425 259.101,218.091 291.5,237C 297.208,238.727 302.541,237.727 307.5,234C 313.384,225.749 312.384,218.416 304.5,212C 255.758,184.683 203.425,172.85 147.5,176.5 Z M 149.5,238.5 C 138.957,239.82 128.29,241.32 117.5,243C 109.276,244.243 101.276,246.243 93.5,249C 87.5716,256.878 88.905,263.211 97.5,268C 115.072,265.351 132.739,263.018 150.5,261C 194.491,256.73 235.491,265.73 273.5,288C 277.12,288.841 280.454,288.174 283.5,286C 289.112,279.633 288.779,273.633 282.5,268C 241.31,244.46 196.977,234.627 149.5,238.5 Z"/></g>
</svg>
